<?xml version="1.0" encoding="utf-8"?>
<!-- Generator: Adobe Illustrator 18.1.1, SVG Export Plug-In . SVG Version: 6.00 Build 0)  -->
<svg version="1.1" xmlns="http://www.w3.org/2000/svg" xmlns:xlink="http://www.w3.org/1999/xlink" x="0px" y="0px"
	 viewBox="0 0 850.4 850.4" enable-background="new 0 0 850.4 850.4" xml:space="preserve">
<g id="Vrstva_2" display="none">
	<radialGradient id="SVGID_1_" cx="425.1948" cy="425.1948" r="656.6071" gradientUnits="userSpaceOnUse">
		<stop  offset="0" style="stop-color:#FFFFFF"/>
		<stop  offset="0.2859" style="stop-color:#FCFCFC"/>
		<stop  offset="0.5366" style="stop-color:#F1F1F1"/>
		<stop  offset="0.7733" style="stop-color:#DFDFE0"/>
		<stop  offset="1" style="stop-color:#C6C7C8"/>
	</radialGradient>
	<rect display="inline" fill="url(#SVGID_1_)" width="850.4" height="850.4"/>
</g>
<g id="Vrstva_1">
	<g display="none">
		<path fill="#FFFFFF" d="M639.7,813.3c0,10.4-102.9,18.8-229.8,18.8c-126.9,0-229.9-8.4-229.9-18.8s102.9-18.8,229.9-18.8
			C536.8,794.5,639.7,802.9,639.7,813.3z"/>
		<path fill="#FEFEFE" d="M636.7,813.3c0,10.2-101.6,18.5-226.9,18.5c-125.3,0-226.9-8.3-226.9-18.5s101.6-18.5,226.9-18.5
			C535.2,794.8,636.7,803.1,636.7,813.3z"/>
		<path fill="#FDFDFD" d="M633.8,813.3c0,10.1-100.3,18.3-224,18.3c-123.7,0-224-8.2-224-18.3c0-10.1,100.3-18.3,224-18.3
			C533.5,795,633.8,803.2,633.8,813.3z"/>
		<path fill="#FCFCFC" d="M630.9,813.3c0,10-99,18.1-221,18.1c-122.1,0-221.1-8.1-221.1-18.1c0-10,99-18.1,221.1-18.1
			C531.9,795.2,630.9,803.3,630.9,813.3z"/>
		<path fill="#FBFBFB" d="M627.9,813.3c0,9.8-97.6,17.8-218.1,17.8c-120.5,0-218.1-8-218.1-17.8c0-9.8,97.7-17.8,218.1-17.8
			C530.3,795.5,627.9,803.5,627.9,813.3z"/>
		<path fill="#FAFAFA" d="M625,813.3c0,9.7-96.3,17.6-215.2,17.6c-118.8,0-215.2-7.9-215.2-17.6c0-9.7,96.3-17.6,215.2-17.6
			C528.7,795.7,625,803.6,625,813.3z"/>
		<path fill="#F9F9F9" d="M622.1,813.3c0,9.6-95,17.4-212.2,17.4c-117.2,0-212.2-7.8-212.2-17.4c0-9.6,95-17.4,212.2-17.4
			C527.1,795.9,622.1,803.7,622.1,813.3z"/>
		<path fill="#F8F8F8" d="M619.1,813.3c0,9.4-93.7,17.1-209.3,17.1c-115.6,0-209.3-7.7-209.3-17.1s93.7-17.1,209.3-17.1
			C525.4,796.2,619.1,803.8,619.1,813.3z"/>
		<path fill="#F7F7F8" d="M616.2,813.3c0,9.3-92.4,16.9-206.4,16.9c-114,0-206.4-7.6-206.4-16.9s92.4-16.9,206.4-16.9
			C523.8,796.4,616.2,804,616.2,813.3z"/>
		<path fill="#F6F6F7" d="M613.3,813.3c0,9.2-91.1,16.7-203.4,16.7c-112.4,0-203.4-7.5-203.4-16.7s91.1-16.7,203.4-16.7
			C522.2,796.6,613.3,804.1,613.3,813.3z"/>
		<path fill="#F5F5F6" d="M610.3,813.3c0,9.1-89.8,16.4-200.5,16.4c-110.7,0-200.5-7.4-200.5-16.4s89.8-16.4,200.5-16.4
			C520.6,796.9,610.3,804.2,610.3,813.3z"/>
		<path fill="#F4F4F5" d="M607.4,813.3c0,8.9-88.5,16.2-197.6,16.2c-109.1,0-197.6-7.3-197.6-16.2s88.5-16.2,197.6-16.2
			C519,797.1,607.4,804.4,607.4,813.3z"/>
		<path fill="#F3F3F4" d="M604.5,813.3c0,8.8-87.1,16-194.6,16c-107.5,0-194.6-7.2-194.6-16c0-8.8,87.1-16,194.6-16
			C517.3,797.3,604.5,804.5,604.5,813.3z"/>
		<path fill="#F2F2F3" d="M601.5,813.3c0,8.7-85.8,15.7-191.7,15.7c-105.9,0-191.7-7-191.7-15.7c0-8.7,85.8-15.7,191.7-15.7
			C515.7,797.6,601.5,804.6,601.5,813.3z"/>
		<path fill="#F1F1F2" d="M598.6,813.3c0,8.5-84.5,15.5-188.8,15.5c-104.3,0-188.8-6.9-188.8-15.5s84.5-15.5,188.8-15.5
			C514.1,797.8,598.6,804.7,598.6,813.3z"/>
		<path fill="#F0F0F1" d="M595.7,813.3c0,8.4-83.2,15.3-185.8,15.3c-102.6,0-185.8-6.8-185.8-15.3S307.2,798,409.8,798
			C512.5,798,595.7,804.9,595.7,813.3z"/>
		<path fill="#EFEFF0" d="M592.7,813.3c0,8.3-81.9,15-182.9,15c-101,0-182.9-6.7-182.9-15s81.9-15,182.9-15
			C510.9,798.3,592.7,805,592.7,813.3z"/>
		<path fill="#EEEEEF" d="M589.8,813.3c0,8.2-80.6,14.8-180,14.8c-99.4,0-180-6.6-180-14.8s80.6-14.8,180-14.8
			C509.2,798.5,589.8,805.1,589.8,813.3z"/>
		<path fill="#EDEDEE" d="M586.9,813.3c0,8-79.3,14.5-177,14.5c-97.8,0-177-6.5-177-14.5s79.3-14.5,177-14.5
			C507.6,798.7,586.9,805.3,586.9,813.3z"/>
		<path fill="#ECEDED" d="M583.9,813.3c0,7.9-77.9,14.3-174.1,14.3c-96.2,0-174.1-6.4-174.1-14.3S313.7,799,409.8,799
			C506,799,583.9,805.4,583.9,813.3z"/>
		<path fill="#EBECEC" d="M581,813.3c0,7.8-76.6,14.1-171.2,14.1c-94.5,0-171.2-6.3-171.2-14.1s76.6-14.1,171.2-14.1
			C504.4,799.2,581,805.5,581,813.3z"/>
		<path fill="#EAEBEB" d="M578.1,813.3c0,7.6-75.3,13.8-168.2,13.8c-92.9,0-168.2-6.2-168.2-13.8c0-7.6,75.3-13.8,168.2-13.8
			C502.7,799.4,578.1,805.7,578.1,813.3z"/>
		<path fill="#E9EAEA" d="M575.1,813.3c0,7.5-74,13.6-165.3,13.6c-91.3,0-165.3-6.1-165.3-13.6c0-7.5,74-13.6,165.3-13.6
			C501.1,799.7,575.1,805.8,575.1,813.3z"/>
		<path fill="#E8E9EA" d="M572.2,813.3c0,7.4-72.7,13.4-162.4,13.4c-89.7,0-162.4-6-162.4-13.4s72.7-13.4,162.4-13.4
			C499.5,799.9,572.2,805.9,572.2,813.3z"/>
		<path fill="#E7E8E9" d="M569.3,813.3c0,7.3-71.4,13.1-159.4,13.1c-88.1,0-159.4-5.9-159.4-13.1s71.4-13.1,159.4-13.1
			C497.9,800.1,569.3,806,569.3,813.3z"/>
		<path fill="#E6E7E8" d="M566.3,813.3c0,7.1-70.1,12.9-156.5,12.9c-86.4,0-156.5-5.8-156.5-12.9s70.1-12.9,156.5-12.9
			C496.3,800.4,566.3,806.2,566.3,813.3z"/>
		<path fill="#E5E6E7" d="M563.4,813.3c0,7-68.8,12.7-153.6,12.7c-84.8,0-153.6-5.7-153.6-12.7s68.8-12.7,153.6-12.7
			C494.6,800.6,563.4,806.3,563.4,813.3z"/>
		<path fill="#E4E5E6" d="M560.5,813.3c0,6.9-67.4,12.4-150.6,12.4c-83.2,0-150.6-5.6-150.6-12.4s67.4-12.4,150.6-12.4
			C493,800.8,560.5,806.4,560.5,813.3z"/>
		<path fill="#E3E4E5" d="M557.5,813.3c0,6.7-66.1,12.2-147.7,12.2c-81.6,0-147.7-5.5-147.7-12.2c0-6.7,66.1-12.2,147.7-12.2
			C491.4,801.1,557.5,806.6,557.5,813.3z"/>
		<path fill="#E2E3E4" d="M554.6,813.3c0,6.6-64.8,12-144.8,12c-80,0-144.8-5.4-144.8-12c0-6.6,64.8-12,144.8-12
			C489.8,801.3,554.6,806.7,554.6,813.3z"/>
		<path fill="#E1E2E3" d="M551.7,813.3c0,6.5-63.5,11.7-141.8,11.7c-78.3,0-141.8-5.3-141.8-11.7c0-6.5,63.5-11.7,141.8-11.7
			C488.2,801.6,551.7,806.8,551.7,813.3z"/>
		<path fill="#E0E1E2" d="M548.7,813.3c0,6.3-62.2,11.5-138.9,11.5c-76.7,0-138.9-5.2-138.9-11.5c0-6.3,62.2-11.5,138.9-11.5
			C486.5,801.8,548.7,806.9,548.7,813.3z"/>
		<path fill="#DFE0E1" d="M545.8,813.3c0,6.2-60.9,11.3-136,11.3c-75.1,0-136-5.1-136-11.3c0-6.2,60.9-11.3,136-11.3
			C484.9,802,545.8,807.1,545.8,813.3z"/>
		<path fill="#DEDFE0" d="M542.9,813.3c0,6.1-59.6,11-133,11c-73.5,0-133-4.9-133-11s59.6-11,133-11
			C483.3,802.3,542.9,807.2,542.9,813.3z"/>
		<path fill="#DDDEDF" d="M539.9,813.3c0,6-58.2,10.8-130.1,10.8c-71.9,0-130.1-4.8-130.1-10.8s58.2-10.8,130.1-10.8
			C481.7,802.5,539.9,807.3,539.9,813.3z"/>
		<path fill="#DCDDDE" d="M537,813.3c0,5.8-56.9,10.6-127.2,10.6c-70.2,0-127.2-4.7-127.2-10.6c0-5.8,56.9-10.6,127.2-10.6
			C480.1,802.7,537,807.5,537,813.3z"/>
		<path fill="#DBDCDD" d="M534.1,813.3c0,5.7-55.6,10.3-124.2,10.3c-68.6,0-124.2-4.6-124.2-10.3c0-5.7,55.6-10.3,124.2-10.3
			C478.4,803,534.1,807.6,534.1,813.3z"/>
		<path fill="#DADBDC" d="M531.1,813.3c0,5.6-54.3,10.1-121.3,10.1c-67,0-121.3-4.5-121.3-10.1c0-5.6,54.3-10.1,121.3-10.1
			C476.8,803.2,531.1,807.7,531.1,813.3z"/>
		<path fill="#DADADC" d="M528.2,813.3c0,5.4-53,9.9-118.4,9.9c-65.4,0-118.4-4.4-118.4-9.9c0-5.4,53-9.9,118.4-9.9
			C475.2,803.4,528.2,807.8,528.2,813.3z"/>
		<path fill="#D9D9DB" d="M525.3,813.3c0,5.3-51.7,9.6-115.4,9.6c-63.8,0-115.4-4.3-115.4-9.6c0-5.3,51.7-9.6,115.4-9.6
			C473.6,803.7,525.3,808,525.3,813.3z"/>
		<path fill="#D8D8DA" d="M522.3,813.3c0,5.2-50.4,9.4-112.5,9.4c-62.1,0-112.5-4.2-112.5-9.4c0-5.2,50.4-9.4,112.5-9.4
			C472,803.9,522.3,808.1,522.3,813.3z"/>
		<path fill="#D7D7D9" d="M519.4,813.3c0,5.1-49.1,9.2-109.6,9.2c-60.5,0-109.6-4.1-109.6-9.2c0-5.1,49.1-9.2,109.6-9.2
			C470.3,804.1,519.4,808.2,519.4,813.3z"/>
		<path fill="#D6D6D8" d="M516.5,813.3c0,4.9-47.7,8.9-106.6,8.9c-58.9,0-106.6-4-106.6-8.9c0-4.9,47.7-8.9,106.6-8.9
			C468.7,804.4,516.5,808.4,516.5,813.3z"/>
		<path fill="#D5D5D7" d="M513.5,813.3c0,4.8-46.4,8.7-103.7,8.7c-57.3,0-103.7-3.9-103.7-8.7c0-4.8,46.4-8.7,103.7-8.7
			C467.1,804.6,513.5,808.5,513.5,813.3z"/>
		<path fill="#D4D4D6" d="M510.6,813.3c0,4.7-45.1,8.5-100.8,8.5c-55.7,0-100.8-3.8-100.8-8.5c0-4.7,45.1-8.5,100.8-8.5
			C465.5,804.8,510.6,808.6,510.6,813.3z"/>
		<path fill="#D3D3D5" d="M507.7,813.3c0,4.5-43.8,8.2-97.8,8.2c-54,0-97.8-3.7-97.8-8.2c0-4.5,43.8-8.2,97.8-8.2
			C463.9,805.1,507.7,808.8,507.7,813.3z"/>
		<path fill="#D2D2D4" d="M504.7,813.3c0,4.4-42.5,8-94.9,8c-52.4,0-94.9-3.6-94.9-8c0-4.4,42.5-8,94.9-8
			C462.2,805.3,504.7,808.9,504.7,813.3z"/>
		<path fill="#D1D1D3" d="M501.8,813.3c0,4.3-41.2,7.8-92,7.8c-50.8,0-92-3.5-92-7.8c0-4.3,41.2-7.8,92-7.8
			C460.6,805.5,501.8,809,501.8,813.3z"/>
		<path fill="#D0D0D2" d="M498.9,813.3c0,4.2-39.9,7.5-89,7.5c-49.2,0-89-3.4-89-7.5c0-4.2,39.9-7.5,89-7.5
			C459,805.8,498.9,809.1,498.9,813.3z"/>
		<path fill="#CFCFD1" d="M495.9,813.3c0,4-38.5,7.3-86.1,7.3c-47.5,0-86.1-3.3-86.1-7.3c0-4,38.5-7.3,86.1-7.3
			C457.4,806,495.9,809.3,495.9,813.3z"/>
		<path fill="#CECED0" d="M493,813.3c0,3.9-37.2,7.1-83.2,7.1c-45.9,0-83.2-3.2-83.2-7.1c0-3.9,37.2-7.1,83.2-7.1
			C455.8,806.2,493,809.4,493,813.3z"/>
		<path fill="#CDCDCF" d="M490.1,813.3c0,3.8-35.9,6.8-80.2,6.8c-44.3,0-80.2-3.1-80.2-6.8c0-3.8,35.9-6.8,80.2-6.8
			C454.1,806.5,490.1,809.5,490.1,813.3z"/>
		<path fill="#CCCCCF" d="M487.1,813.3c0,3.6-34.6,6.6-77.3,6.6c-42.7,0-77.3-3-77.3-6.6c0-3.6,34.6-6.6,77.3-6.6
			C452.5,806.7,487.1,809.7,487.1,813.3z"/>
		<path fill="#CBCBCE" d="M484.2,813.3c0,3.5-33.3,6.4-74.4,6.4c-41.1,0-74.4-2.8-74.4-6.4c0-3.5,33.3-6.4,74.4-6.4
			C450.9,806.9,484.2,809.8,484.2,813.3z"/>
		<path fill="#CACACD" d="M481.3,813.3c0,3.4-32,6.1-71.4,6.1c-39.4,0-71.4-2.7-71.4-6.1c0-3.4,32-6.1,71.4-6.1
			C449.3,807.2,481.3,809.9,481.3,813.3z"/>
		<path fill="#C9C9CC" d="M478.3,813.3c0,3.2-30.7,5.9-68.5,5.9c-37.8,0-68.5-2.6-68.5-5.9c0-3.2,30.7-5.9,68.5-5.9
			C447.7,807.4,478.3,810,478.3,813.3z"/>
		<ellipse fill="#C8C9CB" cx="409.8" cy="813.3" rx="65.6" ry="5.7"/>
		<ellipse fill="#C7C8CA" cx="409.8" cy="813.3" rx="62.6" ry="5.4"/>
		<ellipse fill="#C6C7C9" cx="409.8" cy="813.3" rx="59.7" ry="5.2"/>
		<ellipse fill="#C5C6C8" cx="409.8" cy="813.3" rx="56.8" ry="5"/>
		<ellipse fill="#C4C5C7" cx="409.8" cy="813.3" rx="53.8" ry="4.7"/>
		<ellipse fill="#C3C4C6" cx="409.8" cy="813.3" rx="50.9" ry="4.5"/>
		<ellipse fill="#C2C3C5" cx="409.8" cy="813.3" rx="47.9" ry="4.3"/>
		<ellipse fill="#C1C2C4" cx="409.8" cy="813.3" rx="45" ry="4"/>
		<ellipse fill="#C0C1C3" cx="409.8" cy="813.3" rx="42.1" ry="3.8"/>
		<ellipse fill="#BFC0C2" cx="409.8" cy="813.3" rx="39.1" ry="3.5"/>
		<ellipse fill="#BEBFC1" cx="409.8" cy="813.3" rx="36.2" ry="3.3"/>
		<ellipse fill="#BDBEC1" cx="409.8" cy="813.3" rx="33.3" ry="3.1"/>
		<ellipse fill="#BCBDC0" cx="409.8" cy="813.3" rx="30.3" ry="2.8"/>
		<ellipse fill="#BBBCBF" cx="409.8" cy="813.3" rx="27.4" ry="2.6"/>
		<ellipse fill="#BABBBE" cx="409.8" cy="813.3" rx="24.5" ry="2.4"/>
		<ellipse fill="#B9BABD" cx="409.8" cy="813.3" rx="21.5" ry="2.1"/>
		<ellipse fill="#B8B9BC" cx="409.8" cy="813.3" rx="18.6" ry="1.9"/>
		<ellipse fill="#B7B8BB" cx="409.8" cy="813.3" rx="15.7" ry="1.7"/>
		<ellipse fill="#B6B7BA" cx="409.8" cy="813.3" rx="12.7" ry="1.4"/>
	</g>
	<g id="Layer_3">
		<g id="Layer_4" display="none">
			<rect x="-12.6" display="inline" fill="#C60A0A" width="869.8" height="861.9"/>
		</g>
		<g id="Layer_5">
			<polygon fill="#FFFFFF" stroke="#000000" stroke-miterlimit="10" points="631.3,768.6 232.6,769.8 32.2,420.8 230.5,70.7 
				629.3,69.5 829.6,418.5 			"/>
		</g>
		<text transform="matrix(1 0 0 1 303.8984 503.1387)" font-family="'BirdsofParadise'" font-size="230.4218">L</text>
	</g>
	<g>
		<polygon display="none" fill="#FFFFFF" points="339.1,589.2 236.4,411.5 339.1,233.7 544.3,233.7 646.9,411.5 544.3,589.2 		"/>
		<polygon fill="#E2007A" points="9.6,416 630.9,57.3 216.7,57.3 		"/>
		<polygon fill="#C72199" points="838,416 630.9,57.3 216.7,57.3 		"/>
		<polygon fill="#0B72B5" points="630.9,774.7 630.9,57.3 838,416 		"/>
		<polygon fill="#39A9DC" points="216.7,774.7 838,416 630.9,774.7 		"/>
		<polygon fill="#F29400" points="630.9,774.7 9.6,416 216.7,774.7 		"/>
		<polygon fill="#F8B334" points="216.7,57.3 216.7,774.7 9.6,416 		"/>
		<polygon fill="#D9DADB" points="9.6,416 611.5,182.6 630.9,57.3 		"/>
		<polygon fill="#D9DADB" points="216.7,57.3 719.7,461.9 838,416 		"/>
		<polygon fill="#D9DADB" points="630.9,57.3 532.1,695.2 630.9,774.7 		"/>
		<polygon fill="#D9DADB" points="838,416 236.1,649.4 216.7,774.7 		"/>
		<polygon fill="#D9DADB" points="630.9,774.7 127.9,370.2 9.6,416 		"/>
		<polygon fill="#D9DADB" points="216.7,774.7 315.5,136.8 216.7,57.3 		"/>
		<polygon fill="#E2007A" points="216.7,57.3 9.6,416 216.7,296.4 		"/>
		<linearGradient id="SVGID_2_" gradientUnits="userSpaceOnUse" x1="17.0701" y1="411.4865" x2="302.3543" y2="127.7694">
			<stop  offset="0" style="stop-color:#FFFFFF"/>
			<stop  offset="1" style="stop-color:#E2007A"/>
		</linearGradient>
		<polygon fill="url(#SVGID_2_)" points="216.7,57.3 389.8,196.5 9.6,416 		"/>
		<linearGradient id="SVGID_3_" gradientUnits="userSpaceOnUse" x1="216.6877" y1="167.0412" x2="630.9117" y2="167.0412">
			<stop  offset="0" style="stop-color:#FFFFFF"/>
			<stop  offset="1" style="stop-color:#C72199"/>
		</linearGradient>
		<polygon fill="url(#SVGID_3_)" points="216.7,57.3 596.9,276.8 630.9,57.3 		"/>
		<linearGradient id="SVGID_4_" gradientUnits="userSpaceOnUse" x1="625.1998" y1="62.7902" x2="734.923" y2="457.7993">
			<stop  offset="0" style="stop-color:#FFFFFF"/>
			<stop  offset="1" style="stop-color:#0B72B5"/>
		</linearGradient>
		<polygon fill="url(#SVGID_4_)" points="630.9,57.3 630.9,496.3 838,416 		"/>
		<linearGradient id="SVGID_5_" gradientUnits="userSpaceOnUse" x1="804.5012" y1="396.4155" x2="544.2985" y2="705.2126">
			<stop  offset="0" style="stop-color:#FFFFFF"/>
			<stop  offset="1" style="stop-color:#39A9DC"/>
		</linearGradient>
		<polygon fill="url(#SVGID_5_)" points="457.8,635.5 630.9,774.7 838,416 		"/>
		<linearGradient id="SVGID_6_" gradientUnits="userSpaceOnUse" x1="630.0015" y1="740.4749" x2="234.9948" y2="665.2354">
			<stop  offset="0" style="stop-color:#FFFFFF"/>
			<stop  offset="1" style="stop-color:#F29400"/>
		</linearGradient>
		<polygon fill="url(#SVGID_6_)" points="630.9,774.7 250.7,555.2 216.7,774.7 		"/>
		<linearGradient id="SVGID_7_" gradientUnits="userSpaceOnUse" x1="255.9327" y1="746.2094" x2="113.2912" y2="376.2801">
			<stop  offset="0" style="stop-color:#FFFFFF"/>
			<stop  offset="1" style="stop-color:#F8B334"/>
		</linearGradient>
		<polygon fill="url(#SVGID_7_)" points="9.6,416 216.7,335.7 216.7,774.7 		"/>
		<radialGradient id="SVGID_8_" cx="216.6847" cy="57.2853" r="66.7116" gradientUnits="userSpaceOnUse">
			<stop  offset="0" style="stop-color:#FFFFFF"/>
			<stop  offset="0.2628" style="stop-color:#B5B5B5"/>
			<stop  offset="0.6259" style="stop-color:#555555"/>
			<stop  offset="0.8798" style="stop-color:#181818"/>
			<stop  offset="1" style="stop-color:#000000"/>
		</radialGradient>
		<circle display="none" fill="url(#SVGID_8_)" cx="216.7" cy="57.3" r="70"/>
		<radialGradient id="SVGID_9_" cx="630.9127" cy="300.1578" r="82.063" gradientUnits="userSpaceOnUse">
			<stop  offset="0" style="stop-color:#FFFFFF"/>
			<stop  offset="0.2628" style="stop-color:#B5B5B5"/>
			<stop  offset="0.6259" style="stop-color:#555555"/>
			<stop  offset="0.8798" style="stop-color:#181818"/>
			<stop  offset="1" style="stop-color:#000000"/>
		</radialGradient>
		<circle display="none" fill="url(#SVGID_9_)" cx="630.9" cy="300.2" r="86.1"/>
		<radialGradient id="SVGID_10_" cx="423.8013" cy="658.5564" r="82.0633" gradientUnits="userSpaceOnUse">
			<stop  offset="0" style="stop-color:#FFFFFF"/>
			<stop  offset="0.2628" style="stop-color:#B5B5B5"/>
			<stop  offset="0.6259" style="stop-color:#555555"/>
			<stop  offset="0.8798" style="stop-color:#181818"/>
			<stop  offset="1" style="stop-color:#000000"/>
		</radialGradient>
		<circle display="none" fill="url(#SVGID_10_)" cx="423.8" cy="658.6" r="86.1"/>
		<radialGradient id="SVGID_11_" cx="216.6877" cy="300.1573" r="47.107" gradientUnits="userSpaceOnUse">
			<stop  offset="0" style="stop-color:#FFFFFF"/>
			<stop  offset="0.2628" style="stop-color:#B5B5B5"/>
			<stop  offset="0.6259" style="stop-color:#555555"/>
			<stop  offset="0.8798" style="stop-color:#181818"/>
			<stop  offset="1" style="stop-color:#000000"/>
		</radialGradient>
		<circle display="none" fill="url(#SVGID_11_)" cx="216.7" cy="300.2" r="49.4"/>
		<radialGradient id="SVGID_12_" cx="216.6853" cy="774.7432" r="115.8668" gradientUnits="userSpaceOnUse">
			<stop  offset="0" style="stop-color:#FFFFFF"/>
			<stop  offset="0.2628" style="stop-color:#B5B5B5"/>
			<stop  offset="0.6259" style="stop-color:#555555"/>
			<stop  offset="0.8798" style="stop-color:#181818"/>
			<stop  offset="1" style="stop-color:#000000"/>
		</radialGradient>
		<path display="none" fill="url(#SVGID_12_)" d="M338.3,774.7c0,67.1-54.4,121.6-121.6,121.6c-67.1,0-121.6-54.4-121.6-121.6
			c0-67.1,54.4-121.6,121.6-121.6C283.8,653.2,338.3,707.6,338.3,774.7z"/>
	</g>
	<g display="none">
		<path display="inline" fill="#1A171B" d="M286.5,706.8h1.5v19.8h9.4v1.2h-10.9V706.8z"/>
		<path display="inline" fill="#1A171B" d="M307.1,728.2c-5.2,0-9.2-4.1-9.2-10.6c0-6.9,4.2-11.1,9.5-11.1c5.3,0,9.2,4.2,9.2,10.6
			C316.6,724.5,312,728.2,307.1,728.2L307.1,728.2z M307.2,726.9c5,0,7.8-4.5,7.8-9.7c0-4.4-2.4-9.5-7.7-9.5c-5.3,0-7.8,4.9-7.8,9.8
			C299.5,722.2,302.2,726.9,307.2,726.9L307.2,726.9z"/>
		<path display="inline" fill="#1A171B" d="M320.2,707.1c1.3-0.3,3.1-0.4,4.6-0.4c2.7,0,4.5,0.6,5.7,1.7c0.9,0.9,1.5,2.3,1.5,3.7
			c0,2.8-1.7,4.6-4.1,5.5v0.1c1.7,0.5,2.7,2.1,3.2,4.5c0.7,3.3,1.1,4.8,1.6,5.7h-1.5c-0.3-0.6-0.8-2.5-1.3-5.1c-0.7-3-2-4.4-4.7-4.5
			h-3.3v9.6h-1.5V707.1z M321.7,717h3.3c3.2,0,5.4-1.8,5.4-4.6c0-3.2-2.4-4.5-5.7-4.5c-1.4,0-2.5,0.2-3,0.3V717z"/>
		<path display="inline" fill="#1A171B" d="M345.9,717.4h-8.4v9.2h9.4v1.2H336v-21h10.4v1.2h-8.9v8.1h8.4V717.4z"/>
		<path display="inline" fill="#1A171B" d="M368.3,717.9c-0.2-3.2-0.4-7-0.4-9.3h-0.1c-0.8,2.3-1.6,4.7-2.8,7.9l-4.4,11.4h-1
			l-4.2-11.2c-1.2-3.3-2.1-5.8-2.7-8.1h-0.1c-0.1,2.5-0.2,6.1-0.5,9.6l-0.7,9.7H350l1.5-21h1.7l4.5,12.1c1,2.7,1.7,4.8,2.3,6.8h0.1
			c0.5-1.9,1.3-4,2.3-6.8l4.7-12.1h1.8l1.4,21h-1.5L368.3,717.9z"/>
		<path display="inline" fill="#1A171B" d="M380.2,706.8v21h-5.9v-21H380.2z"/>
		<path display="inline" fill="#1A171B" d="M384.2,707.1c1.6-0.2,4-0.5,7.7-0.5c3.2,0,5.4,0.6,6.8,1.7c1.5,1,2.6,2.9,2.6,5.2
			c0,2-0.7,3.9-2.1,5.1c-1.8,1.6-4.4,2.3-7.6,2.3c-0.7,0-1.2-0.1-1.6-0.1v7h-5.8V707.1z M390,716.3c0.3,0.1,0.8,0.1,1.5,0.1
			c2.3,0,3.9-1,3.9-2.9c0-1.5-1.2-2.5-3.5-2.5c-1,0-1.6,0.1-1.9,0.1V716.3z"/>
		<path display="inline" fill="#1A171B" d="M404.9,721.9c1.4,0.7,3.7,1.5,6.1,1.5c2,0,3-0.6,3-1.7c0-0.9-1-1.5-3.5-2.2
			c-3.6-1-6.6-2.8-6.6-6.5c0-3.8,3.4-6.6,8.9-6.6c2.9,0,4.8,0.5,6.4,1.2l-1.3,4.6c-1-0.4-2.8-1.1-5.2-1.1c-1.7,0-2.7,0.6-2.7,1.5
			c0,1.1,1.3,1.5,4.1,2.4c4.1,1.3,6,3.3,6,6.5c0,3.5-2.8,6.8-9.5,6.8c-2.8,0-5.5-0.7-6.8-1.4L404.9,721.9z"/>
		<path display="inline" fill="#1A171B" d="M429.2,706.8v11.4c0,3.3,1.2,5.4,3.9,5.4c2.7,0,3.9-2,3.9-5.4v-11.4h5.9V718
			c0,6.9-3.7,10.1-10,10.1c-6,0-9.5-3.1-9.5-10.3v-11.1H429.2z"/>
		<path display="inline" fill="#1A171B" d="M466.3,720c-0.1-2.6-0.1-5.5-0.1-9.2h-0.1c-0.8,3-1.7,6.3-2.6,9l-2.3,7.6h-4.7l-1.9-7.6
			c-0.6-2.6-1.3-5.9-1.9-9h-0.1c-0.1,3.2-0.2,6.6-0.3,9.2l-0.3,7.8h-5.6l1.2-21h8.4l1.4,5.3c0.6,2.2,1.2,5.1,1.7,7.8h0.1
			c0.7-2.7,1.5-5.8,2.1-7.9l1.7-5.2h8.2l1,21h-5.9L466.3,720z"/>
		<path display="inline" fill="#1A171B" d="M476.6,707.1c1.6-0.3,3.4-0.5,5.4-0.5c3.8,0,6.7,1,8.5,2.9c1.7,1.7,2.6,4.1,2.6,7.3
			c0,3.1-0.8,5.9-2.7,8c-1.8,2-5,3.2-9.1,3.2c-1.6,0-3.2,0-4.7-0.2V707.1z M478.1,726.6c0.8,0.1,2.1,0.2,3.4,0.2
			c6.7,0,10.1-3.8,10.1-9.9c0.1-5.3-2.9-9-9.7-9c-1.6,0-2.9,0.2-3.8,0.3V726.6z"/>
		<path display="inline" fill="#1A171B" d="M504.6,728.2c-5.2,0-9.2-4.1-9.2-10.6c0-6.9,4.2-11.1,9.5-11.1c5.3,0,9.2,4.2,9.2,10.6
			C514.1,724.5,509.5,728.2,504.6,728.2L504.6,728.2z M504.7,726.9c5,0,7.8-4.5,7.8-9.7c0-4.4-2.4-9.5-7.7-9.5
			c-5.3,0-7.8,4.9-7.8,9.8C497,722.2,499.7,726.9,504.7,726.9L504.7,726.9z"/>
		<path display="inline" fill="#1A171B" d="M517.8,706.8h1.5v19.8h9.4v1.2h-10.9V706.8z"/>
		<path display="inline" fill="#1A171B" d="M538.3,728.2c-5.2,0-9.2-4.1-9.2-10.6c0-6.9,4.2-11.1,9.5-11.1c5.3,0,9.2,4.2,9.2,10.6
			C547.8,724.5,543.2,728.2,538.3,728.2L538.3,728.2z M538.4,726.9c5,0,7.8-4.5,7.8-9.7c0-4.4-2.4-9.5-7.7-9.5
			c-5.3,0-7.8,4.9-7.8,9.8C530.7,722.2,533.5,726.9,538.4,726.9L538.4,726.9z"/>
		<path display="inline" fill="#1A171B" d="M551.5,707.1c1.3-0.3,3.1-0.4,4.6-0.4c2.7,0,4.5,0.6,5.7,1.7c0.9,0.9,1.5,2.3,1.5,3.7
			c0,2.8-1.7,4.6-4.1,5.5v0.1c1.7,0.5,2.7,2.1,3.2,4.5c0.7,3.3,1.1,4.8,1.6,5.7h-1.5c-0.3-0.6-0.8-2.5-1.3-5.1c-0.7-3-2-4.4-4.7-4.5
			H553v9.6h-1.5V707.1z M553,717h3.3c3.2,0,5.4-1.8,5.4-4.6c0-3.2-2.4-4.5-5.7-4.5c-1.4,0-2.5,0.2-3,0.3V717z"/>
	</g>
	<g display="none">
		<path display="inline" fill="#1A171B" d="M267.2,736.9h0.5v7h3.3v0.4h-3.8V736.9z"/>
		<path display="inline" fill="#1A171B" d="M273.9,744.4c-1.4,0-2.4-1.1-2.4-2.7c0-1.8,1.2-2.8,2.5-2.8c1.5,0,2.5,1.1,2.5,2.7
			C276.4,743.6,275.1,744.4,273.9,744.4L273.9,744.4z M273.9,744c1.1,0,2-1,2-2.3c0-1-0.5-2.3-1.9-2.3c-1.4,0-2,1.2-2,2.3
			C272,743,272.9,744,273.9,744L273.9,744z"/>
		<path display="inline" fill="#1A171B" d="M277.8,740.6c0-0.5,0-1.1,0-1.6h0.5l0,1.1h0c0.2-0.7,0.8-1.2,1.5-1.2c0.1,0,0.2,0,0.2,0
			v0.5c-0.1,0-0.2,0-0.3,0c-0.7,0-1.2,0.6-1.4,1.5c0,0.2,0,0.3,0,0.5v2.9h-0.5V740.6z"/>
		<path display="inline" fill="#1A171B" d="M281,741.6c0,1.7,0.9,2.4,2,2.4c0.8,0,1.2-0.2,1.5-0.3l0.1,0.4c-0.2,0.1-0.7,0.3-1.7,0.3
			c-1.5,0-2.5-1.1-2.5-2.7c0-1.8,1-2.9,2.4-2.9c1.7,0,2.1,1.6,2.1,2.4c0,0.1,0,0.2,0,0.3H281z M284.4,741.2c0-0.7-0.3-1.8-1.6-1.8
			c-1.2,0-1.7,1-1.8,1.8H284.4z"/>
		<path display="inline" fill="#1A171B" d="M286.2,740.3c0-0.5,0-0.8,0-1.3h0.5l0,0.9h0c0.3-0.6,0.8-1,1.7-1c0.7,0,1.3,0.5,1.5,1.1
			h0c0.1-0.3,0.3-0.5,0.5-0.7c0.3-0.3,0.7-0.4,1.3-0.4c0.5,0,1.7,0.3,1.7,2.3v3.1H293v-3.1c0-1.2-0.5-1.9-1.4-1.9
			c-0.7,0-1.2,0.5-1.4,1c0,0.2-0.1,0.3-0.1,0.5v3.4h-0.5V741c0-0.9-0.5-1.7-1.3-1.7c-0.7,0-1.3,0.6-1.5,1.2c0,0.2-0.1,0.3-0.1,0.5
			v3.3h-0.5V740.3z"/>
		<path display="inline" fill="#1A171B" d="M297.9,738c-0.2,0-0.4-0.2-0.4-0.5c0-0.2,0.2-0.5,0.4-0.5c0.2,0,0.4,0.2,0.4,0.5
			C298.3,737.8,298.2,738,297.9,738L297.9,738z M297.7,744.3V739h0.5v5.3H297.7z"/>
		<path display="inline" fill="#1A171B" d="M299.9,740.7c0-0.7,0-1.2,0-1.7h0.5l0,1h0c0.4-0.7,1-1.1,2-1.1c1.4,0,2.3,1.1,2.3,2.7
			c0,1.9-1.1,2.8-2.4,2.8c-0.8,0-1.4-0.3-1.8-1h0v3h-0.5V740.7z M300.5,742.2c0,0.1,0,0.3,0,0.4c0.2,0.8,0.9,1.3,1.7,1.3
			c1.2,0,1.9-1,1.9-2.4c0-1.2-0.7-2.3-1.9-2.3c-0.8,0-1.5,0.5-1.7,1.4c0,0.1-0.1,0.3-0.1,0.5V742.2z"/>
		<path display="inline" fill="#1A171B" d="M305.8,743.6c0.3,0.2,0.7,0.4,1.2,0.4c0.8,0,1.2-0.5,1.2-1c0-0.6-0.4-0.9-1.1-1.2
			c-0.9-0.3-1.3-0.8-1.3-1.4c0-0.8,0.6-1.4,1.6-1.4c0.5,0,0.9,0.1,1.2,0.3l-0.2,0.4c-0.2-0.1-0.5-0.3-1.1-0.3c-0.7,0-1,0.4-1,0.9
			c0,0.6,0.4,0.8,1.1,1.1c0.9,0.3,1.4,0.8,1.4,1.6c0,0.9-0.7,1.5-1.8,1.5c-0.5,0-1-0.1-1.3-0.4L305.8,743.6z"/>
		<path display="inline" fill="#1A171B" d="M314.2,743c0,0.5,0,0.9,0,1.3h-0.5l0-0.9h0c-0.3,0.5-0.9,1.1-1.8,1.1
			c-0.7,0-1.8-0.3-1.8-2.3V739h0.5v3c0,1.1,0.4,2,1.4,2c0.8,0,1.3-0.5,1.6-1.1c0.1-0.2,0.1-0.4,0.1-0.6V739h0.5V743z"/>
		<path display="inline" fill="#1A171B" d="M316,740.3c0-0.5,0-0.8,0-1.3h0.5l0,0.9h0c0.3-0.6,0.8-1,1.7-1c0.7,0,1.3,0.5,1.5,1.1h0
			c0.1-0.3,0.3-0.5,0.5-0.7c0.3-0.3,0.7-0.4,1.3-0.4c0.5,0,1.7,0.3,1.7,2.3v3.1h-0.5v-3.1c0-1.2-0.5-1.9-1.4-1.9
			c-0.7,0-1.2,0.5-1.4,1c0,0.2-0.1,0.3-0.1,0.5v3.4h-0.5V741c0-0.9-0.5-1.7-1.3-1.7c-0.7,0-1.3,0.6-1.5,1.2c0,0.2-0.1,0.3-0.1,0.5
			v3.3H316V740.3z"/>
		<path display="inline" fill="#1A171B" d="M331.6,736.5v6.6c0,0.4,0,0.8,0,1.2h-0.5l0-1h0c-0.3,0.6-0.9,1.1-1.9,1.1
			c-1.3,0-2.3-1.1-2.3-2.7c0-1.8,1.1-2.9,2.4-2.9c0.9,0,1.5,0.5,1.7,0.9h0v-3.4H331.6z M331.1,741.1c0-0.1,0-0.3-0.1-0.5
			c-0.2-0.7-0.8-1.3-1.7-1.3c-1.2,0-1.9,1-1.9,2.4c0,1.2,0.6,2.3,1.8,2.3c0.8,0,1.5-0.5,1.7-1.4c0-0.1,0.1-0.3,0.1-0.4V741.1z"/>
		<path display="inline" fill="#1A171B" d="M335.4,744.4c-1.4,0-2.4-1.1-2.4-2.7c0-1.8,1.2-2.8,2.5-2.8c1.5,0,2.5,1.1,2.5,2.7
			C337.9,743.6,336.5,744.4,335.4,744.4L335.4,744.4z M335.4,744c1.1,0,2-1,2-2.3c0-1-0.5-2.3-1.9-2.3c-1.4,0-2,1.2-2,2.3
			C333.5,743,334.3,744,335.4,744L335.4,744z"/>
		<path display="inline" fill="#1A171B" d="M339.2,736.5h0.5v7.8h-0.5V736.5z"/>
		<path display="inline" fill="#1A171B" d="M343.5,744.4c-1.4,0-2.4-1.1-2.4-2.7c0-1.8,1.2-2.8,2.5-2.8c1.5,0,2.5,1.1,2.5,2.7
			C346.1,743.6,344.7,744.4,343.5,744.4L343.5,744.4z M343.6,744c1.1,0,2-1,2-2.3c0-1-0.5-2.3-1.9-2.3c-1.4,0-2,1.2-2,2.3
			C341.6,743,342.5,744,343.6,744L343.6,744z"/>
		<path display="inline" fill="#1A171B" d="M347.4,740.6c0-0.5,0-1.1,0-1.6h0.5l0,1.1h0c0.2-0.7,0.8-1.2,1.5-1.2c0.1,0,0.2,0,0.2,0
			v0.5c-0.1,0-0.2,0-0.3,0c-0.7,0-1.2,0.6-1.4,1.5c0,0.2,0,0.3,0,0.5v2.9h-0.5V740.6z"/>
		<path display="inline" fill="#1A171B" d="M352.8,743.6c0.3,0.2,0.7,0.4,1.2,0.4c0.8,0,1.2-0.5,1.2-1c0-0.6-0.4-0.9-1.1-1.2
			c-0.9-0.3-1.3-0.8-1.3-1.4c0-0.8,0.6-1.4,1.6-1.4c0.5,0,0.9,0.1,1.2,0.3l-0.2,0.4c-0.2-0.1-0.5-0.3-1.1-0.3c-0.7,0-1,0.4-1,0.9
			c0,0.6,0.4,0.8,1.1,1.1c0.9,0.3,1.4,0.8,1.4,1.6c0,0.9-0.7,1.5-1.8,1.5c-0.5,0-1-0.1-1.3-0.4L352.8,743.6z"/>
		<path display="inline" fill="#1A171B" d="M357.4,738c-0.2,0-0.4-0.2-0.4-0.5c0-0.2,0.2-0.5,0.4-0.5c0.2,0,0.4,0.2,0.4,0.5
			C357.9,737.8,357.7,738,357.4,738L357.4,738z M357.2,744.3V739h0.5v5.3H357.2z"/>
		<path display="inline" fill="#1A171B" d="M360.2,737.9v1.2h1.5v0.4h-1.5v3.4c0,0.7,0.2,1.1,0.8,1.1c0.3,0,0.5,0,0.6-0.1l0.1,0.4
			c-0.2,0.1-0.4,0.1-0.7,0.1c-0.4,0-0.7-0.1-0.9-0.4c-0.2-0.3-0.3-0.7-0.3-1.3v-3.3h-0.9V739h0.9v-1L360.2,737.9z"/>
		<path display="inline" fill="#1A171B" d="M368.6,743.1c0,0.4,0,0.8,0.1,1.3h-0.5l-0.1-0.8h0c-0.3,0.4-0.8,0.9-1.7,0.9
			c-1.1,0-1.6-0.7-1.6-1.5c0-1.2,1.1-2,3.2-1.9v-0.1c0-0.5-0.1-1.6-1.4-1.6c-0.5,0-0.9,0.1-1.3,0.4l-0.2-0.4
			c0.5-0.3,1.1-0.5,1.6-0.5c1.5,0,1.8,1.1,1.8,2.1V743.1z M368,741.5c-1.2,0-2.7,0.1-2.7,1.4c0,0.8,0.5,1.1,1.1,1.1
			c0.9,0,1.4-0.5,1.6-1.1c0-0.1,0.1-0.2,0.1-0.3V741.5z"/>
		<path display="inline" fill="#1A171B" d="M370.3,740.3c0-0.5,0-0.8,0-1.3h0.5l0,0.9h0c0.3-0.6,0.8-1,1.7-1c0.7,0,1.3,0.5,1.5,1.1
			h0c0.1-0.3,0.3-0.5,0.5-0.7c0.3-0.3,0.7-0.4,1.3-0.4c0.5,0,1.7,0.3,1.7,2.3v3.1H377v-3.1c0-1.2-0.5-1.9-1.4-1.9
			c-0.7,0-1.2,0.5-1.4,1c0,0.2-0.1,0.3-0.1,0.5v3.4h-0.5V741c0-0.9-0.5-1.7-1.3-1.7c-0.7,0-1.3,0.6-1.5,1.2c0,0.2-0.1,0.3-0.1,0.5
			v3.3h-0.5V740.3z"/>
		<path display="inline" fill="#1A171B" d="M379.4,741.6c0,1.7,0.9,2.4,2,2.4c0.8,0,1.2-0.2,1.5-0.3l0.1,0.4
			c-0.2,0.1-0.7,0.3-1.7,0.3c-1.5,0-2.5-1.1-2.5-2.7c0-1.8,1-2.9,2.4-2.9c1.7,0,2.1,1.6,2.1,2.4c0,0.1,0,0.2,0,0.3H379.4z
			 M382.7,741.2c0-0.7-0.3-1.8-1.6-1.8c-1.2,0-1.7,1-1.8,1.8H382.7z"/>
		<path display="inline" fill="#1A171B" d="M385.3,737.9v1.2h1.5v0.4h-1.5v3.4c0,0.7,0.2,1.1,0.8,1.1c0.3,0,0.5,0,0.6-0.1l0.1,0.4
			c-0.2,0.1-0.4,0.1-0.7,0.1c-0.4,0-0.7-0.1-0.9-0.4c-0.2-0.3-0.3-0.7-0.3-1.3v-3.3h-0.9V739h0.9v-1L385.3,737.9z"/>
		<path display="inline" fill="#1A171B" d="M383.4,745.7c0.2-0.5,0.5-1.6,0.6-2.3l0.7-0.1c-0.2,0.8-0.7,2.1-0.8,2.4L383.4,745.7z"/>
		<path display="inline" fill="#1A171B" d="M396,744.1c-0.2,0.1-0.8,0.3-1.6,0.3c-1.5,0-2.5-1.1-2.5-2.7c0-1.7,1.1-2.8,2.7-2.8
			c0.6,0,1.2,0.2,1.4,0.3l-0.2,0.4c-0.3-0.2-0.7-0.3-1.2-0.3c-1.4,0-2.1,1.1-2.1,2.3c0,1.4,0.9,2.3,2.1,2.3c0.6,0,1-0.2,1.3-0.3
			L396,744.1z"/>
		<path display="inline" fill="#1A171B" d="M399.2,744.4c-1.4,0-2.4-1.1-2.4-2.7c0-1.8,1.2-2.8,2.5-2.8c1.5,0,2.5,1.1,2.5,2.7
			C401.8,743.6,400.4,744.4,399.2,744.4L399.2,744.4z M399.3,744c1.1,0,2-1,2-2.3c0-1-0.5-2.3-1.9-2.3c-1.4,0-2,1.2-2,2.3
			C397.3,743,398.2,744,399.3,744L399.3,744z"/>
		<path display="inline" fill="#1A171B" d="M403.1,740.3c0-0.5,0-0.8,0-1.3h0.5l0,0.9h0c0.3-0.6,1-1.1,1.8-1.1
			c0.5,0,1.8,0.3,1.8,2.2v3.2h-0.5v-3.1c0-1-0.4-1.8-1.5-1.8c-0.7,0-1.4,0.5-1.6,1.2c0,0.1-0.1,0.3-0.1,0.5v3.3h-0.5V740.3z"/>
		<path display="inline" fill="#1A171B" d="M408.8,743.6c0.3,0.2,0.7,0.4,1.2,0.4c0.8,0,1.2-0.5,1.2-1c0-0.6-0.4-0.9-1.1-1.2
			c-0.9-0.3-1.3-0.8-1.3-1.4c0-0.8,0.6-1.4,1.6-1.4c0.5,0,0.9,0.1,1.2,0.3l-0.2,0.4c-0.2-0.1-0.5-0.3-1.1-0.3c-0.7,0-1,0.4-1,0.9
			c0,0.6,0.4,0.8,1.1,1.1c0.9,0.3,1.4,0.8,1.4,1.6c0,0.9-0.7,1.5-1.8,1.5c-0.5,0-1-0.1-1.3-0.4L408.8,743.6z"/>
		<path display="inline" fill="#1A171B" d="M413.2,741.6c0,1.7,0.9,2.4,2,2.4c0.8,0,1.2-0.2,1.5-0.3l0.1,0.4
			c-0.2,0.1-0.7,0.3-1.7,0.3c-1.5,0-2.5-1.1-2.5-2.7c0-1.8,1-2.9,2.4-2.9c1.7,0,2.1,1.6,2.1,2.4c0,0.1,0,0.2,0,0.3H413.2z
			 M416.5,741.2c0-0.7-0.3-1.8-1.6-1.8c-1.2,0-1.7,1-1.8,1.8H416.5z"/>
		<path display="inline" fill="#1A171B" d="M422.1,744.1c-0.2,0.1-0.8,0.3-1.6,0.3c-1.5,0-2.5-1.1-2.5-2.7c0-1.7,1.1-2.8,2.7-2.8
			c0.6,0,1.2,0.2,1.4,0.3l-0.2,0.4c-0.3-0.2-0.7-0.3-1.2-0.3c-1.4,0-2.1,1.1-2.1,2.3c0,1.4,0.9,2.3,2.1,2.3c0.6,0,1-0.2,1.3-0.3
			L422.1,744.1z"/>
		<path display="inline" fill="#1A171B" d="M424.2,737.9v1.2h1.5v0.4h-1.5v3.4c0,0.7,0.2,1.1,0.8,1.1c0.3,0,0.5,0,0.6-0.1l0.1,0.4
			c-0.2,0.1-0.4,0.1-0.7,0.1c-0.4,0-0.7-0.1-0.9-0.4c-0.2-0.3-0.3-0.7-0.3-1.3v-3.3h-0.9V739h0.9v-1L424.2,737.9z"/>
		<path display="inline" fill="#1A171B" d="M426.9,741.6c0,1.7,0.9,2.4,2,2.4c0.8,0,1.2-0.2,1.5-0.3l0.1,0.4
			c-0.2,0.1-0.7,0.3-1.7,0.3c-1.5,0-2.5-1.1-2.5-2.7c0-1.8,1-2.9,2.4-2.9c1.7,0,2.1,1.6,2.1,2.4c0,0.1,0,0.2,0,0.3H426.9z
			 M430.2,741.2c0-0.7-0.3-1.8-1.6-1.8c-1.2,0-1.7,1-1.8,1.8H430.2z"/>
		<path display="inline" fill="#1A171B" d="M432.8,737.9v1.2h1.5v0.4h-1.5v3.4c0,0.7,0.2,1.1,0.8,1.1c0.3,0,0.5,0,0.6-0.1l0.1,0.4
			c-0.2,0.1-0.4,0.1-0.7,0.1c-0.4,0-0.7-0.1-0.9-0.4c-0.2-0.3-0.3-0.7-0.3-1.3v-3.3h-0.9V739h0.9v-1L432.8,737.9z"/>
		<path display="inline" fill="#1A171B" d="M439.6,743c0,0.5,0,0.9,0,1.3h-0.5l0-0.9h0c-0.3,0.5-0.9,1.1-1.8,1.1
			c-0.7,0-1.8-0.3-1.8-2.3V739h0.5v3c0,1.1,0.4,2,1.4,2c0.8,0,1.3-0.5,1.6-1.1c0.1-0.2,0.1-0.4,0.1-0.6V739h0.5V743z"/>
		<path display="inline" fill="#1A171B" d="M441.3,740.6c0-0.5,0-1.1,0-1.6h0.5l0,1.1h0c0.2-0.7,0.8-1.2,1.5-1.2c0.1,0,0.2,0,0.2,0
			v0.5c-0.1,0-0.2,0-0.3,0c-0.7,0-1.2,0.6-1.4,1.5c0,0.2,0,0.3,0,0.5v2.9h-0.5V740.6z"/>
		<path display="inline" fill="#1A171B" d="M450.3,743.1c0,0.4,0,0.8,0.1,1.3h-0.5l-0.1-0.8h0c-0.3,0.4-0.8,0.9-1.7,0.9
			c-1.1,0-1.6-0.7-1.6-1.5c0-1.2,1.1-2,3.2-1.9v-0.1c0-0.5-0.1-1.6-1.4-1.6c-0.5,0-0.9,0.1-1.3,0.4l-0.2-0.4
			c0.5-0.3,1.1-0.5,1.6-0.5c1.5,0,1.8,1.1,1.8,2.1V743.1z M449.8,741.5c-1.2,0-2.7,0.1-2.7,1.4c0,0.8,0.5,1.1,1.1,1.1
			c0.9,0,1.4-0.5,1.6-1.1c0-0.1,0.1-0.2,0.1-0.3V741.5z"/>
		<path display="inline" fill="#1A171B" d="M456.2,736.5v6.6c0,0.4,0,0.8,0,1.2h-0.5l0-1h0c-0.3,0.6-0.9,1.1-1.9,1.1
			c-1.3,0-2.3-1.1-2.3-2.7c0-1.8,1.1-2.9,2.4-2.9c0.9,0,1.5,0.5,1.7,0.9h0v-3.4H456.2z M455.7,741.1c0-0.1,0-0.3-0.1-0.5
			c-0.2-0.7-0.8-1.3-1.7-1.3c-1.2,0-1.9,1-1.9,2.4c0,1.2,0.6,2.3,1.8,2.3c0.8,0,1.5-0.5,1.7-1.4c0-0.1,0.1-0.3,0.1-0.4V741.1z"/>
		<path display="inline" fill="#1A171B" d="M458.2,738c-0.2,0-0.4-0.2-0.4-0.5c0-0.2,0.2-0.5,0.4-0.5c0.2,0,0.4,0.2,0.4,0.5
			C458.7,737.8,458.5,738,458.2,738L458.2,738z M458,744.3V739h0.5v5.3H458z"/>
		<path display="inline" fill="#1A171B" d="M460.3,740.7c0-0.7,0-1.2,0-1.7h0.5l0,1h0c0.4-0.7,1-1.1,2-1.1c1.4,0,2.3,1.1,2.3,2.7
			c0,1.9-1.1,2.8-2.4,2.8c-0.8,0-1.4-0.3-1.8-1h0v3h-0.5V740.7z M460.8,742.2c0,0.1,0,0.3,0,0.4c0.2,0.8,0.9,1.3,1.7,1.3
			c1.2,0,1.9-1,1.9-2.4c0-1.2-0.7-2.3-1.9-2.3c-0.8,0-1.5,0.5-1.8,1.4c0,0.1-0.1,0.3-0.1,0.5V742.2z"/>
		<path display="inline" fill="#1A171B" d="M466.6,738c-0.2,0-0.4-0.2-0.4-0.5c0-0.2,0.2-0.5,0.4-0.5c0.2,0,0.4,0.2,0.4,0.5
			C467,737.8,466.9,738,466.6,738L466.6,738z M466.4,744.3V739h0.5v5.3H466.4z"/>
		<path display="inline" fill="#1A171B" d="M468.4,743.6c0.3,0.2,0.7,0.4,1.2,0.4c0.8,0,1.2-0.5,1.2-1c0-0.6-0.4-0.9-1.1-1.2
			c-0.9-0.3-1.3-0.8-1.3-1.4c0-0.8,0.6-1.4,1.6-1.4c0.5,0,0.9,0.1,1.2,0.3l-0.2,0.4c-0.2-0.1-0.5-0.3-1.1-0.3c-0.7,0-1,0.4-1,0.9
			c0,0.6,0.4,0.8,1.1,1.1c0.9,0.3,1.4,0.8,1.4,1.6c0,0.9-0.7,1.5-1.8,1.5c-0.5,0-1-0.1-1.3-0.4L468.4,743.6z"/>
		<path display="inline" fill="#1A171B" d="M473,738c-0.2,0-0.4-0.2-0.4-0.5c0-0.2,0.2-0.5,0.4-0.5c0.2,0,0.4,0.2,0.4,0.5
			C473.4,737.8,473.3,738,473,738L473,738z M472.8,744.3V739h0.5v5.3H472.8z"/>
		<path display="inline" fill="#1A171B" d="M478.7,744.1c-0.2,0.1-0.8,0.3-1.6,0.3c-1.5,0-2.5-1.1-2.5-2.7c0-1.7,1.1-2.8,2.7-2.8
			c0.6,0,1.2,0.2,1.4,0.3l-0.2,0.4c-0.3-0.2-0.7-0.3-1.2-0.3c-1.4,0-2.1,1.1-2.1,2.3c0,1.4,0.9,2.3,2.1,2.3c0.6,0,1-0.2,1.3-0.3
			L478.7,744.1z"/>
		<path display="inline" fill="#1A171B" d="M480.2,738c-0.2,0-0.4-0.2-0.4-0.5c0-0.2,0.2-0.5,0.4-0.5c0.2,0,0.4,0.2,0.4,0.5
			C480.7,737.8,480.5,738,480.2,738L480.2,738z M480,744.3V739h0.5v5.3H480z"/>
		<path display="inline" fill="#1A171B" d="M482.3,740.3c0-0.5,0-0.8,0-1.3h0.5l0,0.9h0c0.3-0.6,1-1.1,1.8-1.1
			c0.5,0,1.8,0.3,1.8,2.2v3.2h-0.5v-3.1c0-1-0.4-1.8-1.5-1.8c-0.7,0-1.4,0.5-1.6,1.2c0,0.1-0.1,0.3-0.1,0.5v3.3h-0.5V740.3z"/>
		<path display="inline" fill="#1A171B" d="M492.4,743.5c0,1.4-0.3,2-0.7,2.4c-0.5,0.5-1.2,0.6-1.8,0.6c-0.6,0-1.3-0.2-1.7-0.5
			l0.2-0.4c0.4,0.2,0.9,0.4,1.6,0.4c1.1,0,1.9-0.6,1.9-2.1v-0.7h0c-0.3,0.5-0.9,1-1.8,1c-1.3,0-2.3-1.2-2.3-2.6
			c0-1.8,1.2-2.8,2.4-2.8c1,0,1.6,0.6,1.8,1h0l0-0.9h0.5c0,0.4,0,0.8,0,1.4V743.5z M491.9,741.1c0-0.2,0-0.4-0.1-0.5
			c-0.2-0.6-0.8-1.2-1.6-1.2c-1.1,0-1.9,0.9-1.9,2.3c0,1.2,0.6,2.2,1.9,2.2c0.7,0,1.4-0.4,1.6-1.2c0.1-0.2,0.1-0.4,0.1-0.6V741.1z"
			/>
		<path display="inline" fill="#1A171B" d="M496.6,741.6c0,1.7,0.9,2.4,2,2.4c0.8,0,1.2-0.2,1.5-0.3l0.1,0.4
			c-0.2,0.1-0.7,0.3-1.7,0.3c-1.5,0-2.5-1.1-2.5-2.7c0-1.8,1-2.9,2.4-2.9c1.7,0,2.1,1.6,2.1,2.4c0,0.1,0,0.2,0,0.3H496.6z
			 M500,741.2c0-0.7-0.3-1.8-1.6-1.8c-1.2,0-1.7,1-1.8,1.8H500z"/>
		<path display="inline" fill="#1A171B" d="M501.9,736.5h0.5v7.8h-0.5V736.5z"/>
		<path display="inline" fill="#1A171B" d="M504.5,738c-0.2,0-0.4-0.2-0.4-0.5c0-0.2,0.2-0.5,0.4-0.5c0.2,0,0.4,0.2,0.4,0.5
			C504.9,737.8,504.7,738,504.5,738L504.5,738z M504.2,744.3V739h0.5v5.3H504.2z"/>
		<path display="inline" fill="#1A171B" d="M507.2,737.9v1.2h1.5v0.4h-1.5v3.4c0,0.7,0.2,1.1,0.8,1.1c0.3,0,0.5,0,0.6-0.1l0.1,0.4
			c-0.2,0.1-0.4,0.1-0.7,0.1c-0.4,0-0.7-0.1-0.9-0.4c-0.2-0.3-0.3-0.7-0.3-1.3v-3.3h-0.9V739h0.9v-1L507.2,737.9z"/>
		<path display="inline" fill="#1A171B" d="M505.3,745.7c0.2-0.5,0.5-1.6,0.6-2.3l0.7-0.1c-0.2,0.8-0.7,2.1-0.8,2.4L505.3,745.7z"/>
		<path display="inline" fill="#1A171B" d="M514,743.6c0.3,0.2,0.7,0.4,1.2,0.4c0.8,0,1.2-0.5,1.2-1c0-0.6-0.4-0.9-1.1-1.2
			c-0.9-0.3-1.3-0.8-1.3-1.4c0-0.8,0.6-1.4,1.6-1.4c0.5,0,0.9,0.1,1.2,0.3l-0.2,0.4c-0.2-0.1-0.5-0.3-1.1-0.3c-0.7,0-1,0.4-1,0.9
			c0,0.6,0.4,0.8,1.1,1.1c0.9,0.3,1.4,0.8,1.4,1.6c0,0.9-0.7,1.5-1.8,1.5c-0.5,0-1-0.1-1.3-0.4L514,743.6z"/>
		<path display="inline" fill="#1A171B" d="M518.4,741.6c0,1.7,0.9,2.4,2,2.4c0.8,0,1.2-0.2,1.5-0.3l0.1,0.4
			c-0.2,0.1-0.7,0.3-1.7,0.3c-1.5,0-2.5-1.1-2.5-2.7c0-1.8,1-2.9,2.4-2.9c1.7,0,2.1,1.6,2.1,2.4c0,0.1,0,0.2,0,0.3H518.4z
			 M521.8,741.2c0-0.7-0.3-1.8-1.6-1.8c-1.2,0-1.7,1-1.8,1.8H521.8z"/>
		<path display="inline" fill="#1A171B" d="M527.9,736.5v6.6c0,0.4,0,0.8,0,1.2h-0.5l0-1h0c-0.3,0.6-0.9,1.1-1.9,1.1
			c-1.3,0-2.3-1.1-2.3-2.7c0-1.8,1.1-2.9,2.4-2.9c0.9,0,1.5,0.5,1.7,0.9h0v-3.4H527.9z M527.4,741.1c0-0.1,0-0.3-0.1-0.5
			c-0.2-0.7-0.8-1.3-1.7-1.3c-1.2,0-1.9,1-1.9,2.4c0,1.2,0.6,2.3,1.8,2.3c0.8,0,1.5-0.5,1.7-1.4c0-0.1,0.1-0.3,0.1-0.4V741.1z"/>
		<path display="inline" fill="#1A171B" d="M536.3,736.5v6.6c0,0.4,0,0.8,0,1.2h-0.5l0-1h0c-0.3,0.6-0.9,1.1-1.9,1.1
			c-1.3,0-2.3-1.1-2.3-2.7c0-1.8,1.1-2.9,2.4-2.9c0.9,0,1.5,0.5,1.7,0.9h0v-3.4H536.3z M535.8,741.1c0-0.1,0-0.3-0.1-0.5
			c-0.2-0.7-0.8-1.3-1.7-1.3c-1.2,0-1.9,1-1.9,2.4c0,1.2,0.6,2.3,1.8,2.3c0.8,0,1.5-0.5,1.7-1.4c0-0.1,0.1-0.3,0.1-0.4V741.1z"/>
		<path display="inline" fill="#1A171B" d="M540,744.4c-1.4,0-2.4-1.1-2.4-2.7c0-1.8,1.2-2.8,2.5-2.8c1.5,0,2.5,1.1,2.5,2.7
			C542.6,743.6,541.2,744.4,540,744.4L540,744.4z M540.1,744c1.1,0,2-1,2-2.3c0-1-0.5-2.3-1.9-2.3c-1.4,0-2,1.2-2,2.3
			C538.1,743,539,744,540.1,744L540.1,744z"/>
		<path display="inline" fill="#1A171B" d="M546.4,741.6c0,1.7,0.9,2.4,2,2.4c0.8,0,1.2-0.2,1.5-0.3l0.1,0.4
			c-0.2,0.1-0.7,0.3-1.7,0.3c-1.5,0-2.5-1.1-2.5-2.7c0-1.8,1-2.9,2.4-2.9c1.7,0,2.1,1.6,2.1,2.4c0,0.1,0,0.2,0,0.3H546.4z
			 M549.8,741.2c0-0.7-0.3-1.8-1.6-1.8c-1.2,0-1.7,1-1.8,1.8H549.8z"/>
		<path display="inline" fill="#1A171B" d="M551.9,738c-0.2,0-0.4-0.2-0.4-0.5c0-0.2,0.2-0.5,0.4-0.5c0.2,0,0.4,0.2,0.4,0.5
			C552.3,737.8,552.2,738,551.9,738L551.9,738z M551.7,744.3V739h0.5v5.3H551.7z"/>
		<path display="inline" fill="#1A171B" d="M558,743c0,0.5,0,0.9,0,1.3h-0.5l0-0.9h0c-0.3,0.5-0.9,1.1-1.8,1.1
			c-0.7,0-1.8-0.3-1.8-2.3V739h0.5v3c0,1.1,0.4,2,1.4,2c0.8,0,1.3-0.5,1.6-1.1c0.1-0.2,0.1-0.4,0.1-0.6V739h0.5V743z"/>
		<path display="inline" fill="#1A171B" d="M559.6,743.6c0.3,0.2,0.7,0.4,1.2,0.4c0.8,0,1.2-0.5,1.2-1c0-0.6-0.4-0.9-1.1-1.2
			c-0.9-0.3-1.3-0.8-1.3-1.4c0-0.8,0.6-1.4,1.6-1.4c0.5,0,0.9,0.1,1.2,0.3l-0.2,0.4c-0.2-0.1-0.5-0.3-1.1-0.3c-0.7,0-1,0.4-1,0.9
			c0,0.6,0.4,0.8,1.1,1.1c0.9,0.3,1.4,0.8,1.4,1.6c0,0.9-0.7,1.5-1.8,1.5c-0.5,0-1-0.1-1.3-0.4L559.6,743.6z"/>
		<path display="inline" fill="#1A171B" d="M563.9,740.3c0-0.5,0-0.8,0-1.3h0.5l0,0.9h0c0.3-0.6,0.8-1,1.7-1c0.7,0,1.3,0.5,1.5,1.1
			h0c0.1-0.3,0.3-0.5,0.5-0.7c0.3-0.3,0.7-0.4,1.3-0.4c0.5,0,1.7,0.3,1.7,2.3v3.1h-0.5v-3.1c0-1.2-0.5-1.9-1.4-1.9
			c-0.7,0-1.2,0.5-1.4,1c0,0.2-0.1,0.3-0.1,0.5v3.4h-0.5V741c0-0.9-0.5-1.7-1.3-1.7c-0.7,0-1.3,0.6-1.5,1.2c0,0.2-0.1,0.3-0.1,0.5
			v3.3h-0.5V740.3z"/>
		<path display="inline" fill="#1A171B" d="M574.9,744.4c-1.4,0-2.4-1.1-2.4-2.7c0-1.8,1.2-2.8,2.5-2.8c1.5,0,2.5,1.1,2.5,2.7
			C577.4,743.6,576.1,744.4,574.9,744.4L574.9,744.4z M574.9,744c1.1,0,2-1,2-2.3c0-1-0.5-2.3-1.9-2.3c-1.4,0-2,1.2-2,2.3
			C573,743,573.8,744,574.9,744L574.9,744z"/>
		<path display="inline" fill="#1A171B" d="M583,736.5v6.6c0,0.4,0,0.8,0,1.2h-0.5l0-1h0c-0.3,0.6-0.9,1.1-1.9,1.1
			c-1.3,0-2.3-1.1-2.3-2.7c0-1.8,1.1-2.9,2.4-2.9c0.9,0,1.5,0.5,1.7,0.9h0v-3.4H583z M582.4,741.1c0-0.1,0-0.3-0.1-0.5
			c-0.2-0.7-0.8-1.3-1.7-1.3c-1.2,0-1.9,1-1.9,2.4c0,1.2,0.6,2.3,1.8,2.3c0.8,0,1.5-0.5,1.7-1.4c0-0.1,0.1-0.3,0.1-0.4V741.1z"/>
		<path display="inline" fill="#1A171B" d="M272.9,751.1v1.2h1.5v0.4h-1.5v3.4c0,0.7,0.2,1.1,0.8,1.1c0.3,0,0.5,0,0.6-0.1l0.1,0.4
			c-0.2,0.1-0.4,0.1-0.7,0.1c-0.4,0-0.7-0.1-0.9-0.4c-0.2-0.3-0.3-0.7-0.3-1.3v-3.3h-0.9v-0.4h0.9v-1L272.9,751.1z"/>
		<path display="inline" fill="#1A171B" d="M275.6,754.8c0,1.7,0.9,2.4,2,2.4c0.8,0,1.2-0.2,1.5-0.3l0.1,0.4
			c-0.2,0.1-0.7,0.3-1.7,0.3c-1.5,0-2.5-1.1-2.5-2.7c0-1.8,1-2.9,2.4-2.9c1.7,0,2.1,1.6,2.1,2.4c0,0.1,0,0.2,0,0.3H275.6z
			 M279,754.4c0-0.7-0.3-1.8-1.6-1.8c-1.2,0-1.7,1-1.8,1.8H279z"/>
		<path display="inline" fill="#1A171B" d="M280.9,753.5c0-0.5,0-0.8,0-1.3h0.5l0,0.9h0c0.3-0.6,0.8-1,1.7-1c0.7,0,1.3,0.5,1.5,1.1
			h0c0.1-0.3,0.3-0.5,0.5-0.7c0.3-0.3,0.7-0.4,1.3-0.4c0.5,0,1.7,0.3,1.7,2.3v3.1h-0.5v-3.1c0-1.2-0.5-1.9-1.4-1.9
			c-0.7,0-1.2,0.5-1.4,1c0,0.2-0.1,0.3-0.1,0.5v3.4h-0.5v-3.3c0-0.9-0.5-1.7-1.3-1.7c-0.7,0-1.3,0.6-1.5,1.2c0,0.2-0.1,0.3-0.1,0.5
			v3.3h-0.5V753.5z"/>
		<path display="inline" fill="#1A171B" d="M289.9,753.9c0-0.7,0-1.2,0-1.7h0.5l0,1h0c0.4-0.7,1-1.1,2-1.1c1.4,0,2.3,1.1,2.3,2.7
			c0,1.9-1.1,2.8-2.4,2.8c-0.8,0-1.4-0.3-1.8-1h0v3h-0.5V753.9z M290.4,755.4c0,0.1,0,0.3,0,0.4c0.2,0.8,0.9,1.3,1.7,1.3
			c1.2,0,1.9-1,1.9-2.4c0-1.2-0.7-2.3-1.9-2.3c-0.8,0-1.5,0.5-1.7,1.4c0,0.1-0.1,0.3-0.1,0.5V755.4z"/>
		<path display="inline" fill="#1A171B" d="M297.9,757.6c-1.4,0-2.4-1.1-2.4-2.7c0-1.8,1.2-2.8,2.5-2.8c1.5,0,2.5,1.1,2.5,2.7
			C300.4,756.8,299.1,757.6,297.9,757.6L297.9,757.6z M298,757.2c1.1,0,2-1,2-2.3c0-1-0.5-2.3-1.9-2.3c-1.4,0-2,1.2-2,2.3
			C296,756.2,296.9,757.2,298,757.2L298,757.2z"/>
		<path display="inline" fill="#1A171B" d="M301.8,753.8c0-0.5,0-1.1,0-1.6h0.5l0,1.1h0c0.2-0.7,0.8-1.2,1.5-1.2c0.1,0,0.2,0,0.2,0
			v0.5c-0.1,0-0.2,0-0.3,0c-0.7,0-1.2,0.6-1.4,1.5c0,0.2,0,0.3,0,0.5v2.9h-0.5V753.8z"/>
		<path display="inline" fill="#1A171B" d="M307.7,751.2c-0.2,0-0.4-0.2-0.4-0.5c0-0.2,0.2-0.5,0.4-0.5c0.2,0,0.4,0.2,0.4,0.5
			C308.1,751,308,751.2,307.7,751.2L307.7,751.2z M307.4,757.5v-5.3h0.5v5.3H307.4z"/>
		<path display="inline" fill="#1A171B" d="M309.7,753.5c0-0.5,0-0.8,0-1.3h0.5l0,0.9h0c0.3-0.6,1-1.1,1.8-1.1
			c0.5,0,1.8,0.3,1.8,2.2v3.2h-0.5v-3.1c0-1-0.4-1.8-1.5-1.8c-0.7,0-1.4,0.5-1.6,1.2c0,0.1-0.1,0.3-0.1,0.5v3.3h-0.5V753.5z"/>
		<path display="inline" fill="#1A171B" d="M319.3,757.3c-0.2,0.1-0.8,0.3-1.6,0.3c-1.5,0-2.5-1.1-2.5-2.7c0-1.7,1.1-2.8,2.7-2.8
			c0.6,0,1.2,0.2,1.4,0.3l-0.2,0.4c-0.3-0.2-0.7-0.3-1.2-0.3c-1.4,0-2.1,1.1-2.1,2.3c0,1.4,0.9,2.3,2.1,2.3c0.6,0,1-0.2,1.3-0.3
			L319.3,757.3z"/>
		<path display="inline" fill="#1A171B" d="M320.8,751.2c-0.2,0-0.4-0.2-0.4-0.5c0-0.2,0.2-0.5,0.4-0.5c0.2,0,0.4,0.2,0.4,0.5
			C321.2,751,321.1,751.2,320.8,751.2L320.8,751.2z M320.5,757.5v-5.3h0.5v5.3H320.5z"/>
		<path display="inline" fill="#1A171B" d="M327.1,749.7v6.6c0,0.4,0,0.8,0,1.2h-0.5l0-1h0c-0.3,0.6-0.9,1.1-1.9,1.1
			c-1.3,0-2.3-1.1-2.3-2.7c0-1.8,1.1-2.9,2.4-2.9c0.9,0,1.5,0.5,1.7,0.9h0v-3.4H327.1z M326.5,754.3c0-0.1,0-0.3-0.1-0.5
			c-0.2-0.7-0.8-1.3-1.7-1.3c-1.2,0-1.9,1-1.9,2.4c0,1.2,0.6,2.3,1.8,2.3c0.8,0,1.5-0.5,1.7-1.4c0-0.1,0.1-0.3,0.1-0.4V754.3z"/>
		<path display="inline" fill="#1A171B" d="M329.1,751.2c-0.2,0-0.4-0.2-0.4-0.5c0-0.2,0.2-0.5,0.4-0.5c0.2,0,0.4,0.2,0.4,0.5
			C329.5,751,329.3,751.2,329.1,751.2L329.1,751.2z M328.8,757.5v-5.3h0.5v5.3H328.8z"/>
		<path display="inline" fill="#1A171B" d="M335.3,749.7v6.6c0,0.4,0,0.8,0,1.2h-0.5l0-1h0c-0.3,0.6-0.9,1.1-1.9,1.1
			c-1.3,0-2.3-1.1-2.3-2.7c0-1.8,1.1-2.9,2.4-2.9c0.9,0,1.5,0.5,1.7,0.9h0v-3.4H335.3z M334.8,754.3c0-0.1,0-0.3-0.1-0.5
			c-0.2-0.7-0.8-1.3-1.7-1.3c-1.2,0-1.9,1-1.9,2.4c0,1.2,0.6,2.3,1.8,2.3c0.8,0,1.5-0.5,1.7-1.4c0-0.1,0.1-0.3,0.1-0.4V754.3z"/>
		<path display="inline" fill="#1A171B" d="M341.2,756.2c0,0.5,0,0.9,0,1.3h-0.5l0-0.9h0c-0.3,0.5-0.9,1.1-1.8,1.1
			c-0.7,0-1.8-0.3-1.8-2.3v-3.1h0.5v3c0,1.1,0.4,2,1.4,2c0.8,0,1.3-0.5,1.6-1.1c0.1-0.2,0.1-0.4,0.1-0.6v-3.3h0.5V756.2z"/>
		<path display="inline" fill="#1A171B" d="M343,753.5c0-0.5,0-0.8,0-1.3h0.5l0,0.9h0c0.3-0.6,1-1.1,1.8-1.1c0.5,0,1.8,0.3,1.8,2.2
			v3.2h-0.5v-3.1c0-1-0.4-1.8-1.5-1.8c-0.7,0-1.4,0.5-1.6,1.2c0,0.1-0.1,0.3-0.1,0.5v3.3H343V753.5z"/>
		<path display="inline" fill="#1A171B" d="M349.6,751.1v1.2h1.5v0.4h-1.5v3.4c0,0.7,0.2,1.1,0.8,1.1c0.3,0,0.5,0,0.6-0.1l0.1,0.4
			c-0.2,0.1-0.4,0.1-0.7,0.1c-0.4,0-0.7-0.1-0.9-0.4c-0.2-0.3-0.3-0.7-0.3-1.3v-3.3h-0.9v-0.4h0.9v-1L349.6,751.1z"/>
		<path display="inline" fill="#1A171B" d="M358.7,756.2c0,0.5,0,0.9,0,1.3h-0.5l0-0.9h0c-0.3,0.5-0.9,1.1-1.8,1.1
			c-0.7,0-1.8-0.3-1.8-2.3v-3.1h0.5v3c0,1.1,0.4,2,1.4,2c0.8,0,1.3-0.5,1.6-1.1c0.1-0.2,0.1-0.4,0.1-0.6v-3.3h0.5V756.2z"/>
		<path display="inline" fill="#1A171B" d="M361.2,751.1v1.2h1.5v0.4h-1.5v3.4c0,0.7,0.2,1.1,0.8,1.1c0.3,0,0.5,0,0.6-0.1l0.1,0.4
			c-0.2,0.1-0.4,0.1-0.7,0.1c-0.4,0-0.7-0.1-0.9-0.4c-0.2-0.3-0.3-0.7-0.3-1.3v-3.3h-0.9v-0.4h0.9v-1L361.2,751.1z"/>
		<path display="inline" fill="#1A171B" d="M366.3,749.7h0.5v7.8h-0.5V749.7z"/>
		<path display="inline" fill="#1A171B" d="M371.9,756.3c0,0.4,0,0.8,0.1,1.3h-0.5l-0.1-0.8h0c-0.3,0.4-0.8,0.9-1.7,0.9
			c-1.1,0-1.6-0.7-1.6-1.5c0-1.2,1.1-2,3.2-1.9v-0.1c0-0.5-0.1-1.6-1.4-1.6c-0.5,0-0.9,0.1-1.3,0.4l-0.2-0.4
			c0.5-0.3,1.1-0.5,1.6-0.5c1.5,0,1.8,1.1,1.8,2.1V756.3z M371.4,754.7c-1.2,0-2.7,0.1-2.7,1.4c0,0.8,0.5,1.1,1.1,1.1
			c0.9,0,1.4-0.5,1.6-1.1c0-0.1,0.1-0.2,0.1-0.3V754.7z"/>
		<path display="inline" fill="#1A171B" d="M373.6,749.7h0.5v3.5h0c0.4-0.7,1-1.1,1.9-1.1c1.3,0,2.3,1.1,2.3,2.7
			c0,1.9-1.2,2.8-2.4,2.8c-0.9,0-1.5-0.4-1.9-1.1h0l0,0.9h-0.5c0-0.4,0-0.8,0-1.2V749.7z M374.1,755.5c0,0.1,0,0.3,0,0.4
			c0.2,0.8,0.9,1.3,1.7,1.3c1.2,0,1.9-1,1.9-2.4c0-1.2-0.7-2.3-1.9-2.3c-0.8,0-1.5,0.5-1.8,1.4c0,0.1-0.1,0.3-0.1,0.5V755.5z"/>
		<path display="inline" fill="#1A171B" d="M381.7,757.6c-1.4,0-2.4-1.1-2.4-2.7c0-1.8,1.2-2.8,2.5-2.8c1.5,0,2.5,1.1,2.5,2.7
			C384.2,756.8,382.9,757.6,381.7,757.6L381.7,757.6z M381.7,757.2c1.1,0,2-1,2-2.3c0-1-0.5-2.3-1.9-2.3c-1.4,0-2,1.2-2,2.3
			C379.8,756.2,380.6,757.2,381.7,757.2L381.7,757.2z"/>
		<path display="inline" fill="#1A171B" d="M385.5,753.8c0-0.5,0-1.1,0-1.6h0.5l0,1.1h0c0.2-0.7,0.8-1.2,1.5-1.2c0.1,0,0.2,0,0.2,0
			v0.5c-0.1,0-0.2,0-0.3,0c-0.7,0-1.2,0.6-1.4,1.5c0,0.2,0,0.3,0,0.5v2.9h-0.5V753.8z"/>
		<path display="inline" fill="#1A171B" d="M388.8,754.8c0,1.7,0.9,2.4,2,2.4c0.8,0,1.2-0.2,1.5-0.3l0.1,0.4
			c-0.2,0.1-0.7,0.3-1.7,0.3c-1.5,0-2.5-1.1-2.5-2.7c0-1.8,1-2.9,2.4-2.9c1.7,0,2.1,1.6,2.1,2.4c0,0.1,0,0.2,0,0.3H388.8z
			 M392.1,754.4c0-0.7-0.3-1.8-1.6-1.8c-1.2,0-1.7,1-1.8,1.8H392.1z"/>
		<path display="inline" fill="#1A171B" d="M396.5,754.8c0,1.7,0.9,2.4,2,2.4c0.8,0,1.2-0.2,1.5-0.3l0.1,0.4
			c-0.2,0.1-0.7,0.3-1.7,0.3c-1.5,0-2.5-1.1-2.5-2.7c0-1.8,1-2.9,2.4-2.9c1.7,0,2.1,1.6,2.1,2.4c0,0.1,0,0.2,0,0.3H396.5z
			 M399.9,754.4c0-0.7-0.3-1.8-1.6-1.8c-1.2,0-1.7,1-1.8,1.8H399.9z"/>
		<path display="inline" fill="#1A171B" d="M402.5,751.1v1.2h1.5v0.4h-1.5v3.4c0,0.7,0.2,1.1,0.8,1.1c0.3,0,0.5,0,0.6-0.1l0.1,0.4
			c-0.2,0.1-0.4,0.1-0.7,0.1c-0.4,0-0.7-0.1-0.9-0.4c-0.2-0.3-0.3-0.7-0.3-1.3v-3.3h-0.9v-0.4h0.9v-1L402.5,751.1z"/>
		<path display="inline" fill="#1A171B" d="M411.8,749.7v6.6c0,0.4,0,0.8,0,1.2h-0.5l0-1h0c-0.3,0.6-0.9,1.1-1.9,1.1
			c-1.3,0-2.3-1.1-2.3-2.7c0-1.8,1.1-2.9,2.4-2.9c0.9,0,1.5,0.5,1.7,0.9h0v-3.4H411.8z M411.2,754.3c0-0.1,0-0.3-0.1-0.5
			c-0.2-0.7-0.8-1.3-1.7-1.3c-1.2,0-1.9,1-1.9,2.4c0,1.2,0.6,2.3,1.8,2.3c0.8,0,1.5-0.5,1.7-1.4c0-0.1,0.1-0.3,0.1-0.4V754.3z"/>
		<path display="inline" fill="#1A171B" d="M415.5,757.6c-1.4,0-2.4-1.1-2.4-2.7c0-1.8,1.2-2.8,2.5-2.8c1.5,0,2.5,1.1,2.5,2.7
			C418.1,756.8,416.7,757.6,415.5,757.6L415.5,757.6z M415.6,757.2c1.1,0,2-1,2-2.3c0-1-0.5-2.3-1.9-2.3c-1.4,0-2,1.2-2,2.3
			C413.6,756.2,414.5,757.2,415.6,757.2L415.6,757.2z"/>
		<path display="inline" fill="#1A171B" d="M419.4,749.7h0.5v7.8h-0.5V749.7z"/>
		<path display="inline" fill="#1A171B" d="M423.7,757.6c-1.4,0-2.4-1.1-2.4-2.7c0-1.8,1.2-2.8,2.5-2.8c1.5,0,2.5,1.1,2.5,2.7
			C426.2,756.8,424.9,757.6,423.7,757.6L423.7,757.6z M423.7,757.2c1.1,0,2-1,2-2.3c0-1-0.5-2.3-1.9-2.3c-1.4,0-2,1.2-2,2.3
			C421.8,756.2,422.7,757.2,423.7,757.2L423.7,757.2z"/>
		<path display="inline" fill="#1A171B" d="M427.6,753.8c0-0.5,0-1.1,0-1.6h0.5l0,1.1h0c0.2-0.7,0.8-1.2,1.5-1.2c0.1,0,0.2,0,0.2,0
			v0.5c-0.1,0-0.2,0-0.3,0c-0.7,0-1.2,0.6-1.4,1.5c0,0.2,0,0.3,0,0.5v2.9h-0.5V753.8z"/>
		<path display="inline" fill="#1A171B" d="M430.8,754.8c0,1.7,0.9,2.4,2,2.4c0.8,0,1.2-0.2,1.5-0.3l0.1,0.4
			c-0.2,0.1-0.7,0.3-1.7,0.3c-1.5,0-2.5-1.1-2.5-2.7c0-1.8,1-2.9,2.4-2.9c1.7,0,2.1,1.6,2.1,2.4c0,0.1,0,0.2,0,0.3H430.8z
			 M434.2,754.4c0-0.7-0.3-1.8-1.6-1.8c-1.2,0-1.7,1-1.8,1.8H434.2z"/>
		<path display="inline" fill="#1A171B" d="M438.5,753.5c0-0.5,0-0.8,0-1.3h0.5l0,0.9h0c0.3-0.6,0.8-1,1.7-1c0.7,0,1.3,0.5,1.5,1.1
			h0c0.1-0.3,0.3-0.5,0.5-0.7c0.3-0.3,0.7-0.4,1.3-0.4c0.5,0,1.7,0.3,1.7,2.3v3.1h-0.5v-3.1c0-1.2-0.5-1.9-1.4-1.9
			c-0.7,0-1.2,0.5-1.4,1c0,0.2-0.1,0.3-0.1,0.5v3.4h-0.5v-3.3c0-0.9-0.5-1.7-1.3-1.7c-0.7,0-1.3,0.6-1.5,1.2c0,0.2-0.1,0.3-0.1,0.5
			v3.3h-0.5V753.5z"/>
		<path display="inline" fill="#1A171B" d="M450.8,756.3c0,0.4,0,0.8,0.1,1.3h-0.5l-0.1-0.8h0c-0.3,0.4-0.8,0.9-1.7,0.9
			c-1.1,0-1.6-0.7-1.6-1.5c0-1.2,1.1-2,3.2-1.9v-0.1c0-0.5-0.1-1.6-1.4-1.6c-0.5,0-0.9,0.1-1.3,0.4l-0.2-0.4
			c0.5-0.3,1.1-0.5,1.6-0.5c1.5,0,1.8,1.1,1.8,2.1V756.3z M450.2,754.7c-1.2,0-2.7,0.1-2.7,1.4c0,0.8,0.5,1.1,1.1,1.1
			c0.9,0,1.4-0.5,1.6-1.1c0-0.1,0.1-0.2,0.1-0.3V754.7z"/>
		<path display="inline" fill="#1A171B" d="M456.7,756.7c0,1.4-0.3,2-0.7,2.4c-0.5,0.5-1.2,0.6-1.8,0.6c-0.6,0-1.3-0.2-1.7-0.5
			l0.2-0.4c0.4,0.2,0.9,0.4,1.6,0.4c1.1,0,1.9-0.6,1.9-2.1v-0.7h0c-0.3,0.5-0.9,1-1.8,1c-1.3,0-2.3-1.2-2.3-2.6
			c0-1.8,1.2-2.8,2.4-2.8c1,0,1.6,0.6,1.8,1h0l0-0.9h0.5c0,0.4,0,0.8,0,1.4V756.7z M456.1,754.3c0-0.2,0-0.4-0.1-0.5
			c-0.2-0.6-0.8-1.2-1.6-1.2c-1.1,0-1.9,0.9-1.9,2.3c0,1.2,0.6,2.2,1.9,2.2c0.7,0,1.4-0.4,1.6-1.2c0.1-0.2,0.1-0.4,0.1-0.6V754.3z"
			/>
		<path display="inline" fill="#1A171B" d="M458.4,753.5c0-0.5,0-0.8,0-1.3h0.5l0,0.9h0c0.3-0.6,1-1.1,1.8-1.1
			c0.5,0,1.8,0.3,1.8,2.2v3.2H462v-3.1c0-1-0.4-1.8-1.5-1.8c-0.7,0-1.4,0.5-1.6,1.2c0,0.1-0.1,0.3-0.1,0.5v3.3h-0.5V753.5z"/>
		<path display="inline" fill="#1A171B" d="M467.5,756.3c0,0.4,0,0.8,0.1,1.3h-0.5l-0.1-0.8h0c-0.3,0.4-0.8,0.9-1.7,0.9
			c-1.1,0-1.6-0.7-1.6-1.5c0-1.2,1.1-2,3.2-1.9v-0.1c0-0.5-0.1-1.6-1.4-1.6c-0.5,0-0.9,0.1-1.3,0.4l-0.2-0.4
			c0.5-0.3,1.1-0.5,1.6-0.5c1.5,0,1.8,1.1,1.8,2.1V756.3z M467,754.7c-1.2,0-2.7,0.1-2.7,1.4c0,0.8,0.5,1.1,1.1,1.1
			c0.9,0,1.4-0.5,1.6-1.1c0-0.1,0.1-0.2,0.1-0.3V754.7z"/>
		<path display="inline" fill="#1A171B" d="M474.9,756.3c0,0.4,0,0.8,0.1,1.3h-0.5l-0.1-0.8h0c-0.3,0.4-0.8,0.9-1.7,0.9
			c-1.1,0-1.6-0.7-1.6-1.5c0-1.2,1.1-2,3.2-1.9v-0.1c0-0.5-0.1-1.6-1.4-1.6c-0.5,0-0.9,0.1-1.3,0.4l-0.2-0.4
			c0.5-0.3,1.1-0.5,1.6-0.5c1.5,0,1.8,1.1,1.8,2.1V756.3z M474.4,754.7c-1.2,0-2.7,0.1-2.7,1.4c0,0.8,0.5,1.1,1.1,1.1
			c0.9,0,1.4-0.5,1.6-1.1c0-0.1,0.1-0.2,0.1-0.3V754.7z"/>
		<path display="inline" fill="#1A171B" d="M476.6,749.7h0.5v7.8h-0.5V749.7z"/>
		<path display="inline" fill="#1A171B" d="M479.2,751.2c-0.2,0-0.4-0.2-0.4-0.5c0-0.2,0.2-0.5,0.4-0.5c0.2,0,0.4,0.2,0.4,0.5
			C479.7,751,479.5,751.2,479.2,751.2L479.2,751.2z M479,757.5v-5.3h0.5v5.3H479z"/>
		<path display="inline" fill="#1A171B" d="M485,756.6L485,756.6c-0.3,0.5-0.9,1-1.8,1c-1.3,0-2.3-1.1-2.3-2.7c0-2,1.3-2.9,2.4-2.9
			c0.9,0,1.5,0.5,1.7,1h0l0-0.9h0.5c0,0.4,0,0.8,0,1.4v6.1H485V756.6z M485,754.3c0-0.2,0-0.3-0.1-0.5c-0.2-0.7-0.8-1.3-1.7-1.3
			c-1.2,0-1.9,1-1.9,2.4c0,1.2,0.5,2.3,1.8,2.3c0.7,0,1.4-0.4,1.7-1.2c0.1-0.2,0.1-0.4,0.1-0.5V754.3z"/>
		<path display="inline" fill="#1A171B" d="M491.3,756.2c0,0.5,0,0.9,0,1.3h-0.5l0-0.9h0c-0.3,0.5-0.9,1.1-1.8,1.1
			c-0.7,0-1.8-0.3-1.8-2.3v-3.1h0.5v3c0,1.1,0.4,2,1.4,2c0.8,0,1.3-0.5,1.6-1.1c0.1-0.2,0.1-0.4,0.1-0.6v-3.3h0.5V756.2z"/>
		<path display="inline" fill="#1A171B" d="M496.4,756.3c0,0.4,0,0.8,0.1,1.3H496l-0.1-0.8h0c-0.3,0.4-0.8,0.9-1.7,0.9
			c-1.1,0-1.6-0.7-1.6-1.5c0-1.2,1.1-2,3.2-1.9v-0.1c0-0.5-0.1-1.6-1.4-1.6c-0.5,0-0.9,0.1-1.3,0.4l-0.2-0.4
			c0.5-0.3,1.1-0.5,1.6-0.5c1.5,0,1.8,1.1,1.8,2.1V756.3z M495.8,754.7c-1.2,0-2.7,0.1-2.7,1.4c0,0.8,0.5,1.1,1.1,1.1
			c0.9,0,1.4-0.5,1.6-1.1c0-0.1,0.1-0.2,0.1-0.3V754.7z"/>
		<path display="inline" fill="#1A171B" d="M489.2,757.6c-0.3,0-0.4-0.2-0.4-0.5c0-0.3,0.2-0.5,0.5-0.5c0.3,0,0.4,0.2,0.4,0.5
			C489.7,757.4,489.5,757.6,489.2,757.6L489.2,757.6z"/>
		<path display="inline" fill="#1A171B" d="M502.9,750.1v4.5c0,1.9,0.9,2.6,2,2.6c1.2,0,2.1-0.8,2.1-2.6v-4.5h0.5v4.4
			c0,2.3-1.2,3.1-2.6,3.1c-1.3,0-2.5-0.7-2.5-3v-4.5H502.9z"/>
		<path display="inline" fill="#1A171B" d="M510.1,751.1v1.2h1.5v0.4h-1.5v3.4c0,0.7,0.2,1.1,0.8,1.1c0.3,0,0.5,0,0.6-0.1l0.1,0.4
			c-0.2,0.1-0.4,0.1-0.7,0.1c-0.4,0-0.7-0.1-0.9-0.4c-0.2-0.3-0.3-0.7-0.3-1.3v-3.3h-0.9v-0.4h0.9v-1L510.1,751.1z"/>
		<path display="inline" fill="#1A171B" d="M515.2,754.8c0,1.7,0.9,2.4,2,2.4c0.8,0,1.2-0.2,1.5-0.3l0.1,0.4
			c-0.2,0.1-0.7,0.3-1.7,0.3c-1.5,0-2.5-1.1-2.5-2.7c0-1.8,1-2.9,2.4-2.9c1.7,0,2.1,1.6,2.1,2.4c0,0.1,0,0.2,0,0.3H515.2z
			 M518.6,754.4c0-0.7-0.3-1.8-1.6-1.8c-1.2,0-1.7,1-1.8,1.8H518.6z"/>
		<path display="inline" fill="#1A171B" d="M520.5,753.5c0-0.5,0-0.8,0-1.3h0.5l0,0.9h0c0.3-0.6,1-1.1,1.8-1.1
			c0.5,0,1.8,0.3,1.8,2.2v3.2h-0.5v-3.1c0-1-0.4-1.8-1.5-1.8c-0.7,0-1.4,0.5-1.6,1.2c0,0.1-0.1,0.3-0.1,0.5v3.3h-0.5V753.5z"/>
		<path display="inline" fill="#1A171B" d="M526.6,751.2c-0.2,0-0.4-0.2-0.4-0.5c0-0.2,0.2-0.5,0.4-0.5c0.2,0,0.4,0.2,0.4,0.5
			C527.1,751,526.9,751.2,526.6,751.2L526.6,751.2z M526.4,757.5v-5.3h0.5v5.3H526.4z"/>
		<path display="inline" fill="#1A171B" d="M528.7,753.5c0-0.5,0-0.8,0-1.3h0.5l0,0.9h0c0.3-0.6,0.8-1,1.7-1c0.7,0,1.3,0.5,1.5,1.1
			h0c0.1-0.3,0.3-0.5,0.5-0.7c0.3-0.3,0.7-0.4,1.3-0.4c0.5,0,1.7,0.3,1.7,2.3v3.1h-0.5v-3.1c0-1.2-0.5-1.9-1.4-1.9
			c-0.7,0-1.2,0.5-1.4,1c0,0.2-0.1,0.3-0.1,0.5v3.4h-0.5v-3.3c0-0.9-0.5-1.7-1.3-1.7c-0.7,0-1.3,0.6-1.5,1.2c0,0.2-0.1,0.3-0.1,0.5
			v3.3h-0.5V753.5z"/>
		<path display="inline" fill="#1A171B" d="M543.4,756.3c0,0.4,0,0.8,0.1,1.3H543l-0.1-0.8h0c-0.3,0.4-0.8,0.9-1.7,0.9
			c-1.1,0-1.6-0.7-1.6-1.5c0-1.2,1.1-2,3.2-1.9v-0.1c0-0.5-0.1-1.6-1.4-1.6c-0.5,0-0.9,0.1-1.3,0.4l-0.2-0.4
			c0.5-0.3,1.1-0.5,1.6-0.5c1.5,0,1.8,1.1,1.8,2.1V756.3z M542.9,754.7c-1.2,0-2.7,0.1-2.7,1.4c0,0.8,0.5,1.1,1.1,1.1
			c0.9,0,1.4-0.5,1.6-1.1c0-0.1,0.1-0.2,0.1-0.3V754.7z"/>
		<path display="inline" fill="#1A171B" d="M549.3,749.7v6.6c0,0.4,0,0.8,0,1.2h-0.5l0-1h0c-0.3,0.6-0.9,1.1-1.9,1.1
			c-1.3,0-2.3-1.1-2.3-2.7c0-1.8,1.1-2.9,2.4-2.9c0.9,0,1.5,0.5,1.7,0.9h0v-3.4H549.3z M548.8,754.3c0-0.1,0-0.3-0.1-0.5
			c-0.2-0.7-0.8-1.3-1.7-1.3c-1.2,0-1.9,1-1.9,2.4c0,1.2,0.6,2.3,1.8,2.3c0.8,0,1.5-0.5,1.7-1.4c0-0.1,0.1-0.3,0.1-0.4V754.3z"/>
		<path display="inline" fill="#1A171B" d="M553.5,753.5c0-0.5,0-0.8,0-1.3h0.5l0,0.9h0c0.3-0.6,0.8-1,1.7-1c0.7,0,1.3,0.5,1.5,1.1
			h0c0.1-0.3,0.3-0.5,0.5-0.7c0.3-0.3,0.7-0.4,1.3-0.4c0.5,0,1.7,0.3,1.7,2.3v3.1h-0.5v-3.1c0-1.2-0.5-1.9-1.4-1.9
			c-0.7,0-1.2,0.5-1.4,1c0,0.2-0.1,0.3-0.1,0.5v3.4h-0.5v-3.3c0-0.9-0.5-1.7-1.3-1.7c-0.7,0-1.3,0.6-1.5,1.2c0,0.2-0.1,0.3-0.1,0.5
			v3.3h-0.5V753.5z"/>
		<path display="inline" fill="#1A171B" d="M562.7,751.2c-0.2,0-0.4-0.2-0.4-0.5c0-0.2,0.2-0.5,0.4-0.5c0.2,0,0.4,0.2,0.4,0.5
			C563.2,751,563,751.2,562.7,751.2L562.7,751.2z M562.5,757.5v-5.3h0.5v5.3H562.5z"/>
		<path display="inline" fill="#1A171B" d="M564.8,753.5c0-0.5,0-0.8,0-1.3h0.5l0,0.9h0c0.3-0.6,1-1.1,1.8-1.1
			c0.5,0,1.8,0.3,1.8,2.2v3.2h-0.5v-3.1c0-1-0.4-1.8-1.5-1.8c-0.7,0-1.4,0.5-1.6,1.2c0,0.1-0.1,0.3-0.1,0.5v3.3h-0.5V753.5z"/>
		<path display="inline" fill="#1A171B" d="M570.9,751.2c-0.2,0-0.4-0.2-0.4-0.5c0-0.2,0.2-0.5,0.4-0.5s0.4,0.2,0.4,0.5
			C571.4,751,571.2,751.2,570.9,751.2L570.9,751.2z M570.7,757.5v-5.3h0.5v5.3H570.7z"/>
		<path display="inline" fill="#1A171B" d="M573,753.5c0-0.5,0-0.8,0-1.3h0.5l0,0.9h0c0.3-0.6,0.8-1,1.7-1c0.7,0,1.3,0.5,1.5,1.1h0
			c0.1-0.3,0.3-0.5,0.5-0.7c0.3-0.3,0.7-0.4,1.3-0.4c0.5,0,1.7,0.3,1.7,2.3v3.1h-0.5v-3.1c0-1.2-0.5-1.9-1.4-1.9
			c-0.7,0-1.2,0.5-1.4,1c0,0.2-0.1,0.3-0.1,0.5v3.4h-0.5v-3.3c0-0.9-0.5-1.7-1.3-1.7c-0.7,0-1.3,0.6-1.5,1.2c0,0.2-0.1,0.3-0.1,0.5
			v3.3H573V753.5z"/>
		<path display="inline" fill="#1A171B" d="M263,765.4l1.2,3.3c0.2,0.5,0.4,1,0.5,1.4h0c0.1-0.4,0.3-0.9,0.5-1.4l1.3-3.3h0.6
			l-2.1,5.3h-0.5l-2.1-5.3H263z"/>
		<path display="inline" fill="#1A171B" d="M268.2,768c0,1.7,0.9,2.4,2,2.4c0.8,0,1.2-0.2,1.5-0.3l0.1,0.4c-0.2,0.1-0.7,0.3-1.7,0.3
			c-1.5,0-2.5-1.1-2.5-2.7c0-1.8,1-2.9,2.4-2.9c1.7,0,2.1,1.6,2.1,2.4c0,0.1,0,0.2,0,0.3H268.2z M271.5,767.6c0-0.7-0.3-1.8-1.6-1.8
			c-1.2,0-1.7,1-1.8,1.8H271.5z"/>
		<path display="inline" fill="#1A171B" d="M273.4,766.7c0-0.5,0-0.8,0-1.3h0.5l0,0.9h0c0.3-0.6,1-1.1,1.8-1.1
			c0.5,0,1.8,0.3,1.8,2.2v3.2h-0.5v-3.1c0-1-0.4-1.8-1.5-1.8c-0.7,0-1.4,0.5-1.6,1.2c0,0.1-0.1,0.3-0.1,0.5v3.3h-0.5V766.7z"/>
		<path display="inline" fill="#1A171B" d="M279.6,764.4c-0.2,0-0.4-0.2-0.4-0.5c0-0.2,0.2-0.5,0.4-0.5c0.2,0,0.4,0.2,0.4,0.5
			C280,764.2,279.8,764.4,279.6,764.4L279.6,764.4z M279.3,770.7v-5.3h0.5v5.3H279.3z"/>
		<path display="inline" fill="#1A171B" d="M284.9,769.5c0,0.4,0,0.8,0.1,1.3h-0.5l-0.1-0.8h0c-0.3,0.4-0.8,0.9-1.7,0.9
			c-1.1,0-1.6-0.7-1.6-1.5c0-1.2,1.1-2,3.2-1.9v-0.1c0-0.5-0.1-1.6-1.4-1.6c-0.5,0-0.9,0.1-1.3,0.4l-0.2-0.4
			c0.5-0.3,1.1-0.5,1.6-0.5c1.5,0,1.8,1.1,1.8,2.1V769.5z M284.4,767.9c-1.2,0-2.7,0.1-2.7,1.4c0,0.8,0.5,1.1,1.1,1.1
			c0.9,0,1.4-0.5,1.6-1.1c0-0.1,0.1-0.2,0.1-0.3V767.9z"/>
		<path display="inline" fill="#1A171B" d="M286.6,766.7c0-0.5,0-0.8,0-1.3h0.5l0,0.9h0c0.3-0.6,0.8-1,1.7-1c0.7,0,1.3,0.5,1.5,1.1
			h0c0.1-0.3,0.3-0.5,0.5-0.7c0.3-0.3,0.7-0.4,1.3-0.4c0.5,0,1.7,0.3,1.7,2.3v3.1h-0.5v-3.1c0-1.2-0.5-1.9-1.4-1.9
			c-0.7,0-1.2,0.5-1.4,1c0,0.2-0.1,0.3-0.1,0.5v3.4H290v-3.3c0-0.9-0.5-1.7-1.3-1.7c-0.7,0-1.3,0.6-1.5,1.2c0,0.2-0.1,0.3-0.1,0.5
			v3.3h-0.5V766.7z"/>
		<path display="inline" fill="#1A171B" d="M295,772.1c0.2-0.5,0.5-1.6,0.6-2.3l0.7-0.1c-0.2,0.8-0.7,2.1-0.8,2.4L295,772.1z"/>
		<path display="inline" fill="#1A171B" d="M303.6,769.8L303.6,769.8c-0.3,0.5-0.9,1-1.8,1c-1.3,0-2.3-1.1-2.3-2.7
			c0-2,1.3-2.9,2.4-2.9c0.9,0,1.5,0.5,1.7,1h0l0-0.9h0.5c0,0.4,0,0.8,0,1.4v6.1h-0.5V769.8z M303.6,767.5c0-0.2,0-0.3-0.1-0.5
			c-0.2-0.7-0.8-1.3-1.6-1.3c-1.2,0-1.9,1-1.9,2.4c0,1.2,0.6,2.3,1.8,2.3c0.7,0,1.4-0.4,1.6-1.2c0.1-0.2,0.1-0.4,0.1-0.5V767.5z"/>
		<path display="inline" fill="#1A171B" d="M310,769.4c0,0.5,0,0.9,0,1.3h-0.5l0-0.9h0c-0.3,0.5-0.9,1.1-1.8,1.1
			c-0.7,0-1.8-0.3-1.8-2.3v-3.1h0.5v3c0,1.1,0.4,2,1.4,2c0.8,0,1.3-0.5,1.6-1.1c0.1-0.2,0.1-0.4,0.1-0.6v-3.3h0.5V769.4z"/>
		<path display="inline" fill="#1A171B" d="M312,764.4c-0.2,0-0.4-0.2-0.4-0.5c0-0.2,0.2-0.5,0.4-0.5c0.2,0,0.4,0.2,0.4,0.5
			C312.4,764.2,312.3,764.4,312,764.4L312,764.4z M311.7,770.7v-5.3h0.5v5.3H311.7z"/>
		<path display="inline" fill="#1A171B" d="M313.8,770c0.3,0.2,0.7,0.4,1.2,0.4c0.8,0,1.2-0.5,1.2-1c0-0.6-0.4-0.9-1.1-1.2
			c-0.9-0.3-1.3-0.8-1.3-1.4c0-0.8,0.6-1.4,1.6-1.4c0.5,0,0.9,0.1,1.2,0.3l-0.2,0.4c-0.2-0.1-0.5-0.3-1.1-0.3c-0.7,0-1,0.4-1,0.9
			c0,0.6,0.4,0.8,1.1,1.1c0.9,0.3,1.4,0.8,1.4,1.6c0,0.9-0.7,1.5-1.8,1.5c-0.5,0-1-0.1-1.3-0.4L313.8,770z"/>
		<path display="inline" fill="#1A171B" d="M320.6,766.7c0-0.5,0-0.8,0-1.3h0.5l0,0.9h0c0.3-0.6,1-1.1,1.8-1.1
			c0.5,0,1.8,0.3,1.8,2.2v3.2h-0.5v-3.1c0-1-0.4-1.8-1.5-1.8c-0.7,0-1.4,0.5-1.6,1.2c0,0.1-0.1,0.3-0.1,0.5v3.3h-0.5V766.7z"/>
		<path display="inline" fill="#1A171B" d="M328.4,770.8c-1.4,0-2.4-1.1-2.4-2.7c0-1.8,1.2-2.8,2.5-2.8c1.5,0,2.5,1.1,2.5,2.7
			C331,770,329.6,770.8,328.4,770.8L328.4,770.8z M328.5,770.4c1.1,0,2-1,2-2.3c0-1-0.5-2.3-1.9-2.3c-1.4,0-2,1.2-2,2.3
			C326.5,769.4,327.4,770.4,328.5,770.4L328.5,770.4z"/>
		<path display="inline" fill="#1A171B" d="M332.1,770c0.3,0.2,0.7,0.4,1.2,0.4c0.8,0,1.2-0.5,1.2-1c0-0.6-0.4-0.9-1.1-1.2
			c-0.9-0.3-1.3-0.8-1.3-1.4c0-0.8,0.6-1.4,1.6-1.4c0.5,0,0.9,0.1,1.2,0.3l-0.2,0.4c-0.2-0.1-0.5-0.3-1.1-0.3c-0.7,0-1,0.4-1,0.9
			c0,0.6,0.4,0.8,1.1,1.1c0.9,0.3,1.4,0.8,1.4,1.6c0,0.9-0.7,1.5-1.8,1.5c-0.5,0-1-0.1-1.3-0.4L332.1,770z"/>
		<path display="inline" fill="#1A171B" d="M337.1,764.3v1.2h1.5v0.4h-1.5v3.4c0,0.7,0.2,1.1,0.8,1.1c0.3,0,0.5,0,0.6-0.1l0.1,0.4
			c-0.2,0.1-0.4,0.1-0.7,0.1c-0.4,0-0.7-0.1-0.9-0.4c-0.2-0.3-0.3-0.7-0.3-1.3v-3.3h-0.9v-0.4h0.9v-1L337.1,764.3z"/>
		<path display="inline" fill="#1A171B" d="M339.8,767c0-0.5,0-1.1,0-1.6h0.5l0,1.1h0c0.2-0.7,0.8-1.2,1.5-1.2c0.1,0,0.2,0,0.2,0
			v0.5c-0.1,0-0.2,0-0.3,0c-0.7,0-1.2,0.6-1.4,1.5c0,0.2,0,0.3,0,0.5v2.9h-0.5V767z"/>
		<path display="inline" fill="#1A171B" d="M347.1,769.4c0,0.5,0,0.9,0,1.3h-0.5l0-0.9h0c-0.3,0.5-0.9,1.1-1.8,1.1
			c-0.7,0-1.8-0.3-1.8-2.3v-3.1h0.5v3c0,1.1,0.4,2,1.4,2c0.8,0,1.3-0.5,1.6-1.1c0.1-0.2,0.1-0.4,0.1-0.6v-3.3h0.5V769.4z"/>
		<path display="inline" fill="#1A171B" d="M353.1,762.9v6.6c0,0.4,0,0.8,0,1.2h-0.5l0-1h0c-0.3,0.6-0.9,1.1-1.9,1.1
			c-1.3,0-2.3-1.1-2.3-2.7c0-1.8,1.1-2.9,2.4-2.9c0.9,0,1.5,0.5,1.7,0.9h0v-3.4H353.1z M352.6,767.5c0-0.1,0-0.3-0.1-0.5
			c-0.2-0.7-0.8-1.3-1.7-1.3c-1.2,0-1.9,1-1.9,2.4c0,1.2,0.6,2.3,1.8,2.3c0.8,0,1.5-0.5,1.7-1.4c0-0.1,0.1-0.3,0.1-0.4V767.5z"/>
		<path display="inline" fill="#1A171B" d="M357.4,768c0,1.7,0.9,2.4,2,2.4c0.8,0,1.2-0.2,1.5-0.3l0.1,0.4c-0.2,0.1-0.7,0.3-1.7,0.3
			c-1.5,0-2.5-1.1-2.5-2.7c0-1.8,1-2.9,2.4-2.9c1.7,0,2.1,1.6,2.1,2.4c0,0.1,0,0.2,0,0.3H357.4z M360.7,767.6c0-0.7-0.3-1.8-1.6-1.8
			c-1.2,0-1.7,1-1.8,1.8H360.7z"/>
		<path display="inline" fill="#1A171B" d="M362.6,765.4l0.9,1.3c0.2,0.3,0.4,0.6,0.6,0.9h0c0.2-0.3,0.4-0.6,0.6-0.9l0.9-1.3h0.6
			l-1.8,2.6l1.9,2.7h-0.6l-0.9-1.3c-0.2-0.3-0.4-0.7-0.7-1h0c-0.2,0.3-0.4,0.6-0.7,1l-0.9,1.3h-0.6l1.9-2.7l-1.8-2.6H362.6z"/>
		<path display="inline" fill="#1A171B" d="M367.3,768c0,1.7,0.9,2.4,2,2.4c0.8,0,1.2-0.2,1.5-0.3l0.1,0.4c-0.2,0.1-0.7,0.3-1.7,0.3
			c-1.5,0-2.5-1.1-2.5-2.7c0-1.8,1-2.9,2.4-2.9c1.7,0,2.1,1.6,2.1,2.4c0,0.1,0,0.2,0,0.3H367.3z M370.7,767.6c0-0.7-0.3-1.8-1.6-1.8
			c-1.2,0-1.7,1-1.8,1.8H370.7z"/>
		<path display="inline" fill="#1A171B" d="M372.5,767c0-0.5,0-1.1,0-1.6h0.5l0,1.1h0c0.2-0.7,0.8-1.2,1.5-1.2c0.1,0,0.2,0,0.2,0
			v0.5c-0.1,0-0.2,0-0.3,0c-0.7,0-1.2,0.6-1.4,1.5c0,0.2,0,0.3,0,0.5v2.9h-0.5V767z"/>
		<path display="inline" fill="#1A171B" d="M379.3,770.5c-0.2,0.1-0.8,0.3-1.6,0.3c-1.5,0-2.5-1.1-2.5-2.7c0-1.7,1.1-2.8,2.7-2.8
			c0.6,0,1.2,0.2,1.4,0.3l-0.2,0.4c-0.3-0.2-0.7-0.3-1.2-0.3c-1.4,0-2.1,1.1-2.1,2.3c0,1.4,0.9,2.3,2.1,2.3c0.6,0,1-0.2,1.3-0.3
			L379.3,770.5z"/>
		<path display="inline" fill="#1A171B" d="M380.8,764.4c-0.2,0-0.4-0.2-0.4-0.5c0-0.2,0.2-0.5,0.4-0.5c0.2,0,0.4,0.2,0.4,0.5
			C381.3,764.2,381.1,764.4,380.8,764.4L380.8,764.4z M380.6,770.7v-5.3h0.5v5.3H380.6z"/>
		<path display="inline" fill="#1A171B" d="M383.6,764.3v1.2h1.5v0.4h-1.5v3.4c0,0.7,0.2,1.1,0.8,1.1c0.3,0,0.5,0,0.6-0.1l0.1,0.4
			c-0.2,0.1-0.4,0.1-0.7,0.1c-0.4,0-0.7-0.1-0.9-0.4c-0.2-0.3-0.3-0.7-0.3-1.3v-3.3h-0.9v-0.4h0.9v-1L383.6,764.3z"/>
		<path display="inline" fill="#1A171B" d="M389.6,769.5c0,0.4,0,0.8,0.1,1.3h-0.5l-0.1-0.8h0c-0.3,0.4-0.8,0.9-1.7,0.9
			c-1.1,0-1.6-0.7-1.6-1.5c0-1.2,1.1-2,3.2-1.9v-0.1c0-0.5-0.1-1.6-1.4-1.6c-0.5,0-0.9,0.1-1.3,0.4l-0.2-0.4
			c0.5-0.3,1.1-0.5,1.6-0.5c1.5,0,1.8,1.1,1.8,2.1V769.5z M389,767.9c-1.2,0-2.7,0.1-2.7,1.4c0,0.8,0.5,1.1,1.1,1.1
			c0.9,0,1.4-0.5,1.6-1.1c0-0.1,0.1-0.2,0.1-0.3V767.9z"/>
		<path display="inline" fill="#1A171B" d="M392,764.3v1.2h1.5v0.4H392v3.4c0,0.7,0.2,1.1,0.8,1.1c0.3,0,0.5,0,0.6-0.1l0.1,0.4
			c-0.2,0.1-0.4,0.1-0.7,0.1c-0.4,0-0.7-0.1-0.9-0.4c-0.2-0.3-0.3-0.7-0.3-1.3v-3.3h-0.9v-0.4h0.9v-1L392,764.3z"/>
		<path display="inline" fill="#1A171B" d="M394.9,764.4c-0.2,0-0.4-0.2-0.4-0.5c0-0.2,0.2-0.5,0.4-0.5c0.2,0,0.4,0.2,0.4,0.5
			C395.4,764.2,395.2,764.4,394.9,764.4L394.9,764.4z M394.7,770.7v-5.3h0.5v5.3H394.7z"/>
		<path display="inline" fill="#1A171B" d="M398.9,770.8c-1.4,0-2.4-1.1-2.4-2.7c0-1.8,1.2-2.8,2.5-2.8c1.5,0,2.5,1.1,2.5,2.7
			C401.5,770,400.1,770.8,398.9,770.8L398.9,770.8z M399,770.4c1.1,0,2-1,2-2.3c0-1-0.5-2.3-1.9-2.3c-1.4,0-2,1.2-2,2.3
			C397.1,769.4,397.9,770.4,399,770.4L399,770.4z"/>
		<path display="inline" fill="#1A171B" d="M402.8,766.7c0-0.5,0-0.8,0-1.3h0.5l0,0.9h0c0.3-0.6,1-1.1,1.8-1.1
			c0.5,0,1.8,0.3,1.8,2.2v3.2h-0.5v-3.1c0-1-0.4-1.8-1.5-1.8c-0.7,0-1.4,0.5-1.6,1.2c0,0.1-0.1,0.3-0.1,0.5v3.3h-0.5V766.7z"/>
		<path display="inline" fill="#1A171B" d="M415.2,769.4c0,0.5,0,0.9,0,1.3h-0.5l0-0.9h0c-0.3,0.5-0.9,1.1-1.8,1.1
			c-0.7,0-1.8-0.3-1.8-2.3v-3.1h0.5v3c0,1.1,0.4,2,1.4,2c0.8,0,1.3-0.5,1.6-1.1c0.1-0.2,0.1-0.4,0.1-0.6v-3.3h0.5V769.4z"/>
		<path display="inline" fill="#1A171B" d="M417,762.9h0.5v7.8H417V762.9z"/>
		<path display="inline" fill="#1A171B" d="M419.3,762.9h0.5v7.8h-0.5V762.9z"/>
		<path display="inline" fill="#1A171B" d="M424.9,769.5c0,0.4,0,0.8,0.1,1.3h-0.5l-0.1-0.8h0c-0.3,0.4-0.8,0.9-1.7,0.9
			c-1.1,0-1.6-0.7-1.6-1.5c0-1.2,1.1-2,3.2-1.9v-0.1c0-0.5-0.1-1.6-1.4-1.6c-0.5,0-0.9,0.1-1.3,0.4l-0.2-0.4
			c0.5-0.3,1.1-0.5,1.6-0.5c1.5,0,1.8,1.1,1.8,2.1V769.5z M424.4,767.9c-1.2,0-2.7,0.1-2.7,1.4c0,0.8,0.5,1.1,1.1,1.1
			c0.9,0,1.4-0.5,1.6-1.1c0-0.1,0.1-0.2,0.1-0.3V767.9z"/>
		<path display="inline" fill="#1A171B" d="M426.6,766.7c0-0.5,0-0.8,0-1.3h0.5l0,0.9h0c0.3-0.6,0.8-1,1.7-1c0.7,0,1.3,0.5,1.5,1.1
			h0c0.1-0.3,0.3-0.5,0.5-0.7c0.3-0.3,0.7-0.4,1.3-0.4c0.5,0,1.7,0.3,1.7,2.3v3.1h-0.5v-3.1c0-1.2-0.5-1.9-1.4-1.9
			c-0.7,0-1.2,0.5-1.4,1c0,0.2-0.1,0.3-0.1,0.5v3.4H430v-3.3c0-0.9-0.5-1.7-1.3-1.7c-0.7,0-1.3,0.6-1.5,1.2c0,0.2-0.1,0.3-0.1,0.5
			v3.3h-0.5V766.7z"/>
		<path display="inline" fill="#1A171B" d="M439.3,770.5c-0.2,0.1-0.8,0.3-1.6,0.3c-1.5,0-2.5-1.1-2.5-2.7c0-1.7,1.1-2.8,2.7-2.8
			c0.6,0,1.2,0.2,1.4,0.3l-0.2,0.4c-0.3-0.2-0.7-0.3-1.2-0.3c-1.4,0-2.1,1.1-2.1,2.3c0,1.4,0.9,2.3,2.1,2.3c0.6,0,1-0.2,1.3-0.3
			L439.3,770.5z"/>
		<path display="inline" fill="#1A171B" d="M442.5,770.8c-1.4,0-2.4-1.1-2.4-2.7c0-1.8,1.2-2.8,2.5-2.8c1.5,0,2.5,1.1,2.5,2.7
			C445.1,770,443.7,770.8,442.5,770.8L442.5,770.8z M442.6,770.4c1.1,0,2-1,2-2.3c0-1-0.5-2.3-1.9-2.3c-1.4,0-2,1.2-2,2.3
			C440.6,769.4,441.5,770.4,442.6,770.4L442.6,770.4z"/>
		<path display="inline" fill="#1A171B" d="M448.8,762.9h0.5v7.8h-0.5V762.9z"/>
		<path display="inline" fill="#1A171B" d="M454.4,769.5c0,0.4,0,0.8,0.1,1.3H454l-0.1-0.8h0c-0.3,0.4-0.8,0.9-1.7,0.9
			c-1.1,0-1.6-0.7-1.6-1.5c0-1.2,1.1-2,3.2-1.9v-0.1c0-0.5-0.1-1.6-1.4-1.6c-0.5,0-0.9,0.1-1.3,0.4l-0.2-0.4
			c0.5-0.3,1.1-0.5,1.6-0.5c1.5,0,1.8,1.1,1.8,2.1V769.5z M453.9,767.9c-1.2,0-2.7,0.1-2.7,1.4c0,0.8,0.5,1.1,1.1,1.1
			c0.9,0,1.4-0.5,1.6-1.1c0-0.1,0.1-0.2,0.1-0.3V767.9z"/>
		<path display="inline" fill="#1A171B" d="M456.1,762.9h0.5v3.5h0c0.4-0.7,1-1.1,1.9-1.1c1.3,0,2.3,1.1,2.3,2.7
			c0,1.9-1.2,2.8-2.4,2.8c-0.9,0-1.5-0.4-1.9-1.1h0l0,0.9h-0.5c0-0.4,0-0.8,0-1.2V762.9z M456.6,768.7c0,0.1,0,0.3,0,0.4
			c0.2,0.8,0.9,1.3,1.7,1.3c1.2,0,1.9-1,1.9-2.4c0-1.2-0.7-2.3-1.9-2.3c-0.8,0-1.5,0.5-1.8,1.4c0,0.1-0.1,0.3-0.1,0.5V768.7z"/>
		<path display="inline" fill="#1A171B" d="M464.2,770.8c-1.4,0-2.4-1.1-2.4-2.7c0-1.8,1.2-2.8,2.5-2.8c1.5,0,2.5,1.1,2.5,2.7
			C466.7,770,465.4,770.8,464.2,770.8L464.2,770.8z M464.2,770.4c1.1,0,2-1,2-2.3c0-1-0.5-2.3-1.9-2.3c-1.4,0-2,1.2-2,2.3
			C462.3,769.4,463.1,770.4,464.2,770.4L464.2,770.4z"/>
		<path display="inline" fill="#1A171B" d="M468,767c0-0.5,0-1.1,0-1.6h0.5l0,1.1h0c0.2-0.7,0.8-1.2,1.5-1.2c0.1,0,0.2,0,0.2,0v0.5
			c-0.1,0-0.2,0-0.3,0c-0.7,0-1.2,0.6-1.4,1.5c0,0.2,0,0.3,0,0.5v2.9H468V767z"/>
		<path display="inline" fill="#1A171B" d="M471.6,764.4c-0.2,0-0.4-0.2-0.4-0.5c0-0.2,0.2-0.5,0.4-0.5s0.4,0.2,0.4,0.5
			C472.1,764.2,471.9,764.4,471.6,764.4L471.6,764.4z M471.4,770.7v-5.3h0.5v5.3H471.4z"/>
		<path display="inline" fill="#1A171B" d="M473.5,770c0.3,0.2,0.7,0.4,1.2,0.4c0.8,0,1.2-0.5,1.2-1c0-0.6-0.4-0.9-1.1-1.2
			c-0.9-0.3-1.3-0.8-1.3-1.4c0-0.8,0.6-1.4,1.6-1.4c0.5,0,0.9,0.1,1.2,0.3l-0.2,0.4c-0.2-0.1-0.5-0.3-1.1-0.3c-0.7,0-1,0.4-1,0.9
			c0,0.6,0.4,0.8,1.1,1.1c0.9,0.3,1.4,0.8,1.4,1.6c0,0.9-0.7,1.5-1.8,1.5c-0.5,0-1-0.1-1.3-0.4L473.5,770z"/>
		<path display="inline" fill="#1A171B" d="M480.2,766.7c0-0.5,0-0.8,0-1.3h0.5l0,0.9h0c0.3-0.6,1-1.1,1.8-1.1
			c0.5,0,1.8,0.3,1.8,2.2v3.2h-0.5v-3.1c0-1-0.4-1.8-1.5-1.8c-0.7,0-1.4,0.5-1.6,1.2c0,0.1-0.1,0.3-0.1,0.5v3.3h-0.5V766.7z"/>
		<path display="inline" fill="#1A171B" d="M486.3,764.4c-0.2,0-0.4-0.2-0.4-0.5c0-0.2,0.2-0.5,0.4-0.5c0.2,0,0.4,0.2,0.4,0.5
			C486.8,764.2,486.6,764.4,486.3,764.4L486.3,764.4z M486.1,770.7v-5.3h0.5v5.3H486.1z"/>
		<path display="inline" fill="#1A171B" d="M488.2,770c0.3,0.2,0.7,0.4,1.2,0.4c0.8,0,1.2-0.5,1.2-1c0-0.6-0.4-0.9-1.1-1.2
			c-0.9-0.3-1.3-0.8-1.3-1.4c0-0.8,0.6-1.4,1.6-1.4c0.5,0,0.9,0.1,1.2,0.3l-0.2,0.4c-0.2-0.1-0.5-0.3-1.1-0.3c-0.7,0-1,0.4-1,0.9
			c0,0.6,0.4,0.8,1.1,1.1c0.9,0.3,1.4,0.8,1.4,1.6c0,0.9-0.7,1.5-1.8,1.5c-0.5,0-1-0.1-1.3-0.4L488.2,770z"/>
		<path display="inline" fill="#1A171B" d="M492.7,764.4c-0.2,0-0.4-0.2-0.4-0.5c0-0.2,0.2-0.5,0.4-0.5c0.2,0,0.4,0.2,0.4,0.5
			C493.2,764.2,493,764.4,492.7,764.4L492.7,764.4z M492.5,770.7v-5.3h0.5v5.3H492.5z"/>
		<path display="inline" fill="#1A171B" d="M501.3,769.4c0,0.5,0,0.9,0,1.3h-0.5l0-0.9h0c-0.3,0.5-0.9,1.1-1.8,1.1
			c-0.7,0-1.8-0.3-1.8-2.3v-3.1h0.5v3c0,1.1,0.4,2,1.4,2c0.8,0,1.3-0.5,1.6-1.1c0.1-0.2,0.1-0.4,0.1-0.6v-3.3h0.5V769.4z"/>
		<path display="inline" fill="#1A171B" d="M503.8,764.3v1.2h1.5v0.4h-1.5v3.4c0,0.7,0.2,1.1,0.8,1.1c0.3,0,0.5,0,0.6-0.1l0.1,0.4
			c-0.2,0.1-0.4,0.1-0.7,0.1c-0.4,0-0.7-0.1-0.9-0.4c-0.2-0.3-0.3-0.7-0.3-1.3v-3.3h-0.9v-0.4h0.9v-1L503.8,764.3z"/>
		<path display="inline" fill="#1A171B" d="M512.1,769.5c0,0.4,0,0.8,0.1,1.3h-0.5l-0.1-0.8h0c-0.3,0.4-0.8,0.9-1.7,0.9
			c-1.1,0-1.6-0.7-1.6-1.5c0-1.2,1.1-2,3.2-1.9v-0.1c0-0.5-0.1-1.6-1.4-1.6c-0.5,0-0.9,0.1-1.3,0.4l-0.2-0.4
			c0.5-0.3,1.1-0.5,1.6-0.5c1.5,0,1.8,1.1,1.8,2.1V769.5z M511.6,767.9c-1.2,0-2.7,0.1-2.7,1.4c0,0.8,0.5,1.1,1.1,1.1
			c0.9,0,1.4-0.5,1.6-1.1c0-0.1,0.1-0.2,0.1-0.3V767.9z"/>
		<path display="inline" fill="#1A171B" d="M513.8,762.9h0.5v7.8h-0.5V762.9z"/>
		<path display="inline" fill="#1A171B" d="M516.4,764.4c-0.2,0-0.4-0.2-0.4-0.5c0-0.2,0.2-0.5,0.4-0.5s0.4,0.2,0.4,0.5
			C516.8,764.2,516.7,764.4,516.4,764.4L516.4,764.4z M516.2,770.7v-5.3h0.5v5.3H516.2z"/>
		<path display="inline" fill="#1A171B" d="M522.1,769.8L522.1,769.8c-0.3,0.5-0.9,1-1.8,1c-1.3,0-2.3-1.1-2.3-2.7
			c0-2,1.3-2.9,2.4-2.9c0.9,0,1.5,0.5,1.7,1h0l0-0.9h0.5c0,0.4,0,0.8,0,1.4v6.1h-0.5V769.8z M522.1,767.5c0-0.2,0-0.3-0.1-0.5
			c-0.2-0.7-0.8-1.3-1.7-1.3c-1.2,0-1.9,1-1.9,2.4c0,1.2,0.5,2.3,1.8,2.3c0.7,0,1.4-0.4,1.7-1.2c0.1-0.2,0.1-0.4,0.1-0.5V767.5z"/>
		<path display="inline" fill="#1A171B" d="M528.5,769.4c0,0.5,0,0.9,0,1.3H528l0-0.9h0c-0.3,0.5-0.9,1.1-1.8,1.1
			c-0.7,0-1.8-0.3-1.8-2.3v-3.1h0.5v3c0,1.1,0.4,2,1.4,2c0.8,0,1.3-0.5,1.6-1.1c0.1-0.2,0.1-0.4,0.1-0.6v-3.3h0.5V769.4z"/>
		<path display="inline" fill="#1A171B" d="M530.5,764.4c-0.2,0-0.4-0.2-0.4-0.5c0-0.2,0.2-0.5,0.4-0.5s0.4,0.2,0.4,0.5
			C530.9,764.2,530.8,764.4,530.5,764.4L530.5,764.4z M530.3,770.7v-5.3h0.5v5.3H530.3z"/>
		<path display="inline" fill="#1A171B" d="M532.6,767.1c0-0.7,0-1.2,0-1.7h0.5l0,1h0c0.4-0.7,1-1.1,2-1.1c1.4,0,2.3,1.1,2.3,2.7
			c0,1.9-1.1,2.8-2.4,2.8c-0.8,0-1.4-0.3-1.8-1h0v3h-0.5V767.1z M533.1,768.6c0,0.1,0,0.3,0,0.4c0.2,0.8,0.9,1.3,1.7,1.3
			c1.2,0,1.9-1,1.9-2.4c0-1.2-0.7-2.3-1.9-2.3c-0.8,0-1.5,0.5-1.8,1.4c0,0.1-0.1,0.3-0.1,0.5V768.6z"/>
		<path display="inline" fill="#1A171B" d="M544.7,770.5c-0.2,0.1-0.8,0.3-1.6,0.3c-1.5,0-2.5-1.1-2.5-2.7c0-1.7,1.1-2.8,2.7-2.8
			c0.6,0,1.2,0.2,1.4,0.3l-0.2,0.4c-0.3-0.2-0.7-0.3-1.2-0.3c-1.4,0-2.1,1.1-2.1,2.3c0,1.4,0.9,2.3,2.1,2.3c0.6,0,1-0.2,1.3-0.3
			L544.7,770.5z"/>
		<path display="inline" fill="#1A171B" d="M547.9,770.8c-1.4,0-2.4-1.1-2.4-2.7c0-1.8,1.2-2.8,2.5-2.8c1.5,0,2.5,1.1,2.5,2.7
			C550.5,770,549.1,770.8,547.9,770.8L547.9,770.8z M548,770.4c1.1,0,2-1,2-2.3c0-1-0.5-2.3-1.9-2.3c-1.4,0-2,1.2-2,2.3
			C546,769.4,546.9,770.4,548,770.4L548,770.4z"/>
		<path display="inline" fill="#1A171B" d="M551.8,766.7c0-0.5,0-0.8,0-1.3h0.5l0,0.9h0c0.3-0.6,1-1.1,1.8-1.1
			c0.5,0,1.8,0.3,1.8,2.2v3.2h-0.5v-3.1c0-1-0.4-1.8-1.5-1.8c-0.7,0-1.4,0.5-1.6,1.2c0,0.1-0.1,0.3-0.1,0.5v3.3h-0.5V766.7z"/>
		<path display="inline" fill="#1A171B" d="M557.5,770c0.3,0.2,0.7,0.4,1.2,0.4c0.8,0,1.2-0.5,1.2-1c0-0.6-0.4-0.9-1.1-1.2
			c-0.9-0.3-1.3-0.8-1.3-1.4c0-0.8,0.6-1.4,1.6-1.4c0.5,0,0.9,0.1,1.2,0.3l-0.2,0.4c-0.2-0.1-0.5-0.3-1.1-0.3c-0.7,0-1,0.4-1,0.9
			c0,0.6,0.4,0.8,1.1,1.1c0.9,0.3,1.4,0.8,1.4,1.6c0,0.9-0.7,1.5-1.8,1.5c-0.5,0-1-0.1-1.3-0.4L557.5,770z"/>
		<path display="inline" fill="#1A171B" d="M561.9,768c0,1.7,0.9,2.4,2,2.4c0.8,0,1.2-0.2,1.5-0.3l0.1,0.4c-0.2,0.1-0.7,0.3-1.7,0.3
			c-1.5,0-2.5-1.1-2.5-2.7c0-1.8,1-2.9,2.4-2.9c1.7,0,2.1,1.6,2.1,2.4c0,0.1,0,0.2,0,0.3H561.9z M565.2,767.6c0-0.7-0.3-1.8-1.6-1.8
			c-1.2,0-1.7,1-1.8,1.8H565.2z"/>
		<path display="inline" fill="#1A171B" d="M570.8,769.8L570.8,769.8c-0.3,0.5-0.9,1-1.8,1c-1.3,0-2.3-1.1-2.3-2.7
			c0-2,1.3-2.9,2.4-2.9c0.9,0,1.5,0.5,1.7,1h0l0-0.9h0.5c0,0.4,0,0.8,0,1.4v6.1h-0.5V769.8z M570.8,767.5c0-0.2,0-0.3-0.1-0.5
			c-0.2-0.7-0.8-1.3-1.7-1.3c-1.2,0-1.9,1-1.9,2.4c0,1.2,0.6,2.3,1.8,2.3c0.7,0,1.4-0.4,1.7-1.2c0.1-0.2,0.1-0.4,0.1-0.5V767.5z"/>
		<path display="inline" fill="#1A171B" d="M577.2,769.4c0,0.5,0,0.9,0,1.3h-0.5l0-0.9h0c-0.3,0.5-0.9,1.1-1.8,1.1
			c-0.7,0-1.8-0.3-1.8-2.3v-3.1h0.5v3c0,1.1,0.4,2,1.4,2c0.8,0,1.3-0.5,1.6-1.1c0.1-0.2,0.1-0.4,0.1-0.6v-3.3h0.5V769.4z"/>
		<path display="inline" fill="#1A171B" d="M582.2,769.5c0,0.4,0,0.8,0.1,1.3h-0.5l-0.1-0.8h0c-0.3,0.4-0.8,0.9-1.7,0.9
			c-1.1,0-1.6-0.7-1.6-1.5c0-1.2,1.1-2,3.2-1.9v-0.1c0-0.5-0.1-1.6-1.4-1.6c-0.5,0-0.9,0.1-1.3,0.4l-0.2-0.4
			c0.5-0.3,1.1-0.5,1.6-0.5c1.5,0,1.8,1.1,1.8,2.1V769.5z M581.7,767.9c-1.2,0-2.7,0.1-2.7,1.4c0,0.8,0.5,1.1,1.1,1.1
			c0.9,0,1.4-0.5,1.6-1.1c0-0.1,0.1-0.2,0.1-0.3V767.9z"/>
		<path display="inline" fill="#1A171B" d="M584.7,764.3v1.2h1.5v0.4h-1.5v3.4c0,0.7,0.2,1.1,0.8,1.1c0.3,0,0.5,0,0.6-0.1l0.1,0.4
			c-0.2,0.1-0.4,0.1-0.7,0.1c-0.4,0-0.7-0.1-0.9-0.4c-0.2-0.3-0.3-0.7-0.3-1.3v-3.3h-0.9v-0.4h0.9v-1L584.7,764.3z"/>
		<path display="inline" fill="#1A171B" d="M587.5,770.8c-0.3,0-0.4-0.2-0.4-0.5c0-0.3,0.2-0.5,0.5-0.5c0.3,0,0.4,0.2,0.4,0.5
			C587.9,770.6,587.8,770.8,587.5,770.8L587.5,770.8z"/>
	</g>
</g>
</svg>
